<?xml version="1.0" encoding="utf-8"?>
<!-- Generator: Adobe Illustrator 26.0.2, SVG Export Plug-In . SVG Version: 6.00 Build 0)  -->
<svg version="1.1" id="Layer_1" xmlns="http://www.w3.org/2000/svg" xmlns:xlink="http://www.w3.org/1999/xlink" x="0px" y="0px"
	 viewBox="0 0 876.14 250" style="enable-background:new 0 0 876.14 250;" xml:space="preserve">
<style type="text/css">
	.st0{fill:#A981AF;}
</style>
<g>
	<path class="st0" d="M6.02,226.79c11.8-28.92,23.6-57.85,35.62-87.3c-1.28,0-2.31,0.01-3.34,0c-4.19-0.07-8.42,0.12-12.58-0.29
		c-8.23-0.8-13.98-7.47-13.67-15.43c0.31-8.07,6.7-14.39,14.99-14.54c8.3-0.15,16.6-0.12,24.89,0.01c2.03,0.03,2.97-0.6,3.73-2.46
		c12-29.39,24.03-58.76,36.14-88.1c2.95-7.15,8.42-11.74,15.96-13.16c6.6-1.24,13.36-1.44,19.78,1.22
		c6.48,2.68,10.41,7.69,13.03,14.1c14.43,35.22,28.97,70.4,43.46,105.59c13.01,31.59,26,63.2,39.06,94.77
		c2.04,4.92,2.77,9.84,0.76,14.84c-2.25,5.59-6.48,8.85-12.57,9.13c-6.44,0.29-11.39-2.5-14.69-8.05c-0.81-1.37-1.47-2.84-2.06-4.32
		c-25.85-64.51-51.68-129.02-77.51-193.54c-0.36-0.91-0.77-1.81-1.41-3.31c-9.8,24.47-19.38,48.39-29.13,72.74
		c1.21,0.08,2.14,0.17,3.07,0.19c4.2,0.08,8.41-0.09,12.58,0.26c7.65,0.64,13.52,7.31,13.54,15.02c0.03,7.63-5.94,14.65-13.51,15.04
		c-8.48,0.44-16.99,0.3-25.48,0.23c-2.05-0.02-2.87,0.67-3.62,2.52c-12.14,30.29-24.37,60.55-36.57,90.82
		c-2.47,6.14-6.08,11-13.19,12.12c-7.86,1.24-14.27-2.66-16.68-10.24c-0.14-0.45-0.42-0.85-0.64-1.27
		C6.02,231.19,6.02,228.99,6.02,226.79z"/>
	<path class="st0" d="M735.28,139.19c0,25.19,0,50.04,0,75.3c1.33,0,2.6,0,3.87,0c38.19,0,76.39,0.05,114.58-0.04
		c7.02-0.02,12.26,2.57,15.17,9.04c3.84,8.55-1.77,18.32-11.07,19.52c-1.48,0.19-2.99,0.28-4.48,0.28
		c-43.99,0.01-87.99-0.04-131.98,0.06c-7.04,0.02-12.64-2.08-15.62-8.73c-0.98-2.19-1.36-4.84-1.36-7.28
		c-0.07-68.09,0-136.18-0.11-204.27c-0.02-10.11,7.49-16.65,16.72-16.6c44.69,0.27,89.39,0.1,134.08,0.14
		c10.15,0.01,17.15,9.21,14.41,18.75c-1.48,5.16-6.83,9.36-12.71,9.93c-1.29,0.13-2.6,0.1-3.9,0.1c-37.89,0-75.79,0-113.68,0
		c-1.2,0-2.39,0-3.82,0c0,24.97,0,49.8,0,75c1.19,0,2.35,0,3.51,0c34.7,0,69.39-0.02,104.08,0.01c8.1,0.01,14.58,6.07,14.92,13.77
		c0.34,7.78-5.36,14.16-13.36,14.92c-1.29,0.12-2.6,0.1-3.9,0.1c-33.9,0-67.79,0-101.69,0
		C737.76,139.19,736.59,139.19,735.28,139.19z"/>
	<path class="st0" d="M365.8,36.01c-9.85,24.47-19.49,48.43-29.33,72.89c4.7,0,8.97-0.08,13.22,0.02
		c8.04,0.19,13.66,4.39,15.36,11.35c2.29,9.38-3.54,18.18-13.2,18.89c-8.26,0.61-16.58,0.33-24.88,0.29
		c-1.97-0.01-2.89,0.5-3.67,2.44c-12.12,30.31-24.37,60.56-36.56,90.85c-2.3,5.72-5.59,10.46-11.98,11.97
		c-11.09,2.62-20.21-6.08-18.3-17.42c0.35-2.05,1.06-4.06,1.85-5.99c10.71-26.16,21.47-52.31,32.21-78.45
		c0.38-0.92,0.75-1.84,1.36-3.35c-2.21,0-4.13,0.03-6.05-0.01c-3.4-0.06-6.81,0.07-10.18-0.3c-8-0.87-13.69-7.53-13.41-15.38
		c0.28-7.91,6.61-14.36,14.67-14.55c8.39-0.2,16.8-0.13,25.2-0.01c2.01,0.03,2.98-0.55,3.75-2.43c12-29.39,24.04-58.77,36.14-88.11
		c2.95-7.16,8.41-11.79,15.96-13.16c7.52-1.36,15.13-1.44,22.19,2.47c4.77,2.64,7.87,6.66,9.91,11.61
		c16.37,39.71,32.74,79.42,49.1,119.13c11.63,28.22,23.23,56.45,34.85,84.67c3.21,7.79,0.1,16.91-6.96,20.38
		c-7.24,3.56-16.72,0.58-20.42-7.19c-3.91-8.19-7.05-16.75-10.43-25.19c-23.03-57.47-46.03-114.95-69.05-172.42
		C366.82,38.2,366.43,37.4,365.8,36.01z"/>
	<path class="st0" d="M563.63,214.16c8.85-22.09,17.49-43.67,26.14-65.25c17.57-43.86,35.14-87.71,52.68-131.58
		c2.48-6.21,6.26-10.84,13.27-12.05c9.84-1.69,18.36,6.25,17.21,16.28c-0.27,2.35-0.92,4.73-1.82,6.92
		c-27.5,66.91-55.05,133.8-82.6,200.69c-4.75,11.53-11.73,16.01-24.31,16.18c-7.03,0.09-13.66-0.89-18.84-6.03
		c-2.22-2.2-4.36-4.82-5.54-7.66c-27.98-67.68-55.83-135.42-83.71-203.14c-2.46-5.97-2.99-11.87,0.88-17.43
		c6.45-9.26,20.48-7.87,25.95,2.74c2.65,5.13,4.56,10.65,6.71,16.02c24.21,60.44,48.41,120.89,72.61,181.33
		C562.62,211.98,563.01,212.78,563.63,214.16z"/>
</g>
</svg>
