<?xml version="1.0" encoding="utf-8"?>
<!-- Generator: Adobe Illustrator 26.0.2, SVG Export Plug-In . SVG Version: 6.00 Build 0)  -->
<svg version="1.1" id="Layer_1" xmlns="http://www.w3.org/2000/svg" xmlns:xlink="http://www.w3.org/1999/xlink" x="0px" y="0px"
	 viewBox="0 0 50 50" style="enable-background:new 0 0 50 50;" xml:space="preserve">
<style type="text/css">
	.st0{fill:#9100C3;}
</style>
<g>
	<path class="st0" d="M41.14,10.01C38.13,8.61,34.91,7.58,31.55,7c-0.41,0.75-0.9,1.75-1.23,2.55c-3.58-0.54-7.12-0.54-10.63,0
		c-0.33-0.8-0.83-1.8-1.24-2.55c-3.37,0.58-6.59,1.61-9.6,3.02c-6.07,9.18-7.72,18.12-6.9,26.94C5.97,39.97,9.87,41.8,13.71,43
		c0.95-1.3,1.79-2.69,2.52-4.15c-1.39-0.53-2.71-1.18-3.97-1.93c0.33-0.25,0.66-0.5,0.97-0.77c7.65,3.58,15.97,3.58,23.53,0
		c0.32,0.27,0.64,0.52,0.97,0.77c-1.26,0.76-2.59,1.41-3.98,1.94c0.73,1.46,1.57,2.85,2.52,4.15c3.84-1.2,7.75-3.02,11.77-6.03
		C49.02,26.74,46.41,17.88,41.14,10.01z M17.27,31.54c-2.3,0-4.18-2.14-4.18-4.76s1.84-4.76,4.18-4.76c2.34,0,4.22,2.14,4.18,4.76
		C21.46,29.4,19.61,31.54,17.27,31.54z M32.73,31.54c-2.3,0-4.18-2.14-4.18-4.76s1.84-4.76,4.18-4.76c2.34,0,4.22,2.14,4.18,4.76
		C36.91,29.4,35.06,31.54,32.73,31.54z"/>
</g>
</svg>
