<?xml version="1.0" encoding="utf-8"?>
<!-- Generator: Adobe Illustrator 26.0.2, SVG Export Plug-In . SVG Version: 6.00 Build 0)  -->
<svg version="1.1" id="Layer_1" xmlns="http://www.w3.org/2000/svg" xmlns:xlink="http://www.w3.org/1999/xlink" x="0px" y="0px"
	 viewBox="0 0 405.73 68.27" style="enable-background:new 0 0 405.73 68.27;" xml:space="preserve">
<style type="text/css">
	.st0{enable-background:new    ;}
	.st1{fill:#A981AF;}
</style>
<g>
	<g class="st0">
		<path class="st1" d="M93.48,15.32v30.45h-4.49V15.32H93.48z M108.81,24.77l-9.37,9.58l-0.97,0.67l-6.59,6.85l-0.04-5.12
			l11.63-11.97H108.81z M99.99,31.83l9.32,13.94h-5.21l-7.48-11.38L99.99,31.83z"/>
		<path class="st1" d="M121.83,46.19c-2.1,0-3.95-0.43-5.54-1.3c-1.6-0.87-2.83-2.12-3.72-3.76c-0.88-1.64-1.32-3.59-1.32-5.86
			c0-2.27,0.44-4.22,1.32-5.86c0.88-1.64,2.11-2.89,3.68-3.76c1.57-0.87,3.34-1.3,5.33-1.3c2.04,0,3.78,0.42,5.21,1.26
			c1.43,0.84,2.52,1.99,3.28,3.44s1.13,3.11,1.13,4.96c0,0.5-0.01,0.98-0.04,1.43c-0.03,0.45-0.07,0.84-0.13,1.18h-16.88v-3.44
			h14.91l-2.23,0.67c0-1.9-0.48-3.37-1.43-4.39c-0.95-1.02-2.25-1.53-3.91-1.53c-1.21,0-2.25,0.28-3.15,0.84
			c-0.9,0.56-1.58,1.39-2.06,2.5c-0.48,1.11-0.71,2.46-0.71,4.05c0,1.57,0.25,2.9,0.76,3.99s1.22,1.92,2.14,2.48
			c0.92,0.56,2.02,0.84,3.28,0.84c1.4,0,2.53-0.27,3.4-0.8c0.87-0.53,1.55-1.27,2.06-2.23l3.57,1.68c-0.5,1.01-1.18,1.88-2.04,2.62
			c-0.85,0.74-1.87,1.31-3.04,1.7C124.52,46,123.23,46.19,121.83,46.19z"/>
		<path class="st1" d="M146.11,46.19c-2.1,0-3.95-0.43-5.54-1.3c-1.6-0.87-2.83-2.12-3.72-3.76c-0.88-1.64-1.32-3.59-1.32-5.86
			c0-2.27,0.44-4.22,1.32-5.86c0.88-1.64,2.11-2.89,3.68-3.76c1.57-0.87,3.34-1.3,5.33-1.3c2.04,0,3.78,0.42,5.21,1.26
			c1.43,0.84,2.52,1.99,3.28,3.44s1.13,3.11,1.13,4.96c0,0.5-0.01,0.98-0.04,1.43c-0.03,0.45-0.07,0.84-0.13,1.18h-16.88v-3.44
			h14.91l-2.23,0.67c0-1.9-0.48-3.37-1.43-4.39c-0.95-1.02-2.25-1.53-3.91-1.53c-1.21,0-2.25,0.28-3.15,0.84
			c-0.9,0.56-1.58,1.39-2.06,2.5c-0.48,1.11-0.71,2.46-0.71,4.05c0,1.57,0.25,2.9,0.76,3.99s1.22,1.92,2.14,2.48
			c0.92,0.56,2.02,0.84,3.28,0.84c1.4,0,2.53-0.27,3.4-0.8c0.87-0.53,1.55-1.27,2.06-2.23l3.57,1.68c-0.5,1.01-1.18,1.88-2.04,2.62
			c-0.85,0.74-1.87,1.31-3.04,1.7C148.8,46,147.51,46.19,146.11,46.19z"/>
		<path class="st1" d="M161.14,54.59V24.77h3.99l0.34,5.88l-0.59-0.71c0.34-1.09,0.85-2.06,1.55-2.9c0.7-0.84,1.58-1.5,2.62-1.97
			c1.05-0.48,2.21-0.71,3.46-0.71c1.71,0,3.26,0.43,4.66,1.3c1.4,0.87,2.51,2.11,3.32,3.72c0.81,1.61,1.22,3.56,1.22,5.86
			c0,2.3-0.41,4.26-1.24,5.9c-0.83,1.64-1.95,2.89-3.36,3.76s-2.99,1.3-4.72,1.3c-1.79,0-3.32-0.47-4.58-1.41
			c-1.26-0.94-2.16-2.13-2.69-3.59l0.5-0.71v14.11H161.14z M171.43,42.54c1.82,0,3.24-0.64,4.26-1.93c1.02-1.29,1.53-3.07,1.53-5.33
			c0-2.27-0.5-4.05-1.51-5.35c-1.01-1.3-2.41-1.95-4.2-1.95c-1.18,0-2.21,0.3-3.09,0.9c-0.88,0.6-1.57,1.44-2.06,2.52
			s-0.73,2.37-0.73,3.88c0,1.48,0.24,2.77,0.71,3.86c0.48,1.09,1.15,1.93,2.02,2.52S170.26,42.54,171.43,42.54z"/>
		<path class="st1" d="M196.3,46.19c-2.6,0-4.87-0.58-6.78-1.74c-1.92-1.16-3.23-2.79-3.93-4.89l4.37-2.06
			c0.25,1.01,0.64,1.88,1.18,2.6c0.53,0.73,1.23,1.28,2.1,1.66c0.87,0.38,1.95,0.57,3.23,0.57c1.09,0,2.02-0.2,2.77-0.59
			c0.76-0.39,1.34-0.94,1.74-1.64c0.41-0.7,0.61-1.5,0.61-2.39c0-0.92-0.18-1.69-0.53-2.31c-0.35-0.61-0.9-1.06-1.64-1.34
			c-0.74-0.28-1.69-0.42-2.83-0.42c-0.34,0-0.68,0.01-1.03,0.02c-0.35,0.01-0.72,0.05-1.11,0.11v-3.78c0.25,0.03,0.5,0.05,0.74,0.06
			c0.24,0.01,0.47,0.02,0.69,0.02c1.82,0,3.12-0.36,3.91-1.09c0.78-0.73,1.18-1.86,1.18-3.4c0-1.32-0.4-2.32-1.2-3.02
			s-1.94-1.05-3.42-1.05c-1.54,0-2.74,0.36-3.59,1.07s-1.5,1.74-1.95,3.09l-4.12-1.72c0.39-1.29,1.05-2.41,1.97-3.36
			c0.92-0.95,2.06-1.69,3.42-2.21c1.36-0.52,2.85-0.78,4.47-0.78c1.99,0,3.65,0.32,4.98,0.97c1.33,0.64,2.32,1.53,2.98,2.65
			c0.66,1.12,0.99,2.37,0.99,3.74c0,1.06-0.15,2-0.46,2.79c-0.31,0.8-0.72,1.48-1.24,2.06c-0.52,0.57-1.08,1.02-1.68,1.32
			c-0.6,0.31-1.21,0.52-1.83,0.63v0.08c0.81,0.03,1.56,0.19,2.25,0.48s1.3,0.7,1.85,1.22c0.55,0.52,0.97,1.14,1.28,1.87
			c0.31,0.73,0.46,1.53,0.46,2.39c0,1.68-0.42,3.15-1.26,4.41c-0.84,1.26-2,2.24-3.46,2.94S198.23,46.19,196.3,46.19z"/>
		<path class="st1" d="M212.09,45.77v-21h3.82l0.42,3.78c0.56-1.37,1.39-2.42,2.5-3.13c1.11-0.71,2.47-1.07,4.09-1.07
			c0.42,0,0.84,0.04,1.26,0.1c0.42,0.07,0.77,0.18,1.05,0.32l-0.63,3.95c-0.31-0.11-0.65-0.2-1.03-0.27
			c-0.38-0.07-0.89-0.1-1.53-0.1c-0.87,0-1.72,0.23-2.56,0.69s-1.53,1.16-2.08,2.08s-0.82,2.1-0.82,3.53v11.13H212.09z"/>
		<path class="st1" d="M228.47,40.1c0.95,0,1.71,0.27,2.29,0.82c0.57,0.55,0.86,1.28,0.86,2.2c0,0.92-0.29,1.67-0.86,2.23
			c-0.57,0.56-1.34,0.84-2.29,0.84c-0.98,0-1.76-0.28-2.33-0.84c-0.57-0.56-0.86-1.3-0.86-2.23c0-0.92,0.29-1.66,0.86-2.2
			C226.71,40.38,227.49,40.1,228.47,40.1z"/>
		<path class="st1" d="M237.67,45.77v-21h3.99l0.29,5.46l-0.59-0.59c0.39-1.2,0.96-2.21,1.7-3s1.62-1.38,2.65-1.74
			c1.02-0.36,2.11-0.55,3.25-0.55c1.48,0,2.82,0.29,4.01,0.86s2.13,1.43,2.83,2.58s1.05,2.6,1.05,4.37v13.61h-4.49V33.55
			c0-2.07-0.43-3.51-1.28-4.31c-0.85-0.8-1.93-1.2-3.21-1.2c-0.92,0-1.82,0.22-2.69,0.65c-0.87,0.43-1.59,1.13-2.16,2.08
			c-0.57,0.95-0.86,2.23-0.86,3.82v11.17H237.67z"/>
		<path class="st1" d="M272.9,46.19c-2.1,0-3.95-0.43-5.54-1.3s-2.83-2.12-3.72-3.76c-0.88-1.64-1.32-3.59-1.32-5.86
			c0-2.27,0.44-4.22,1.32-5.86c0.88-1.64,2.11-2.89,3.67-3.76c1.57-0.87,3.35-1.3,5.33-1.3c2.04,0,3.78,0.42,5.21,1.26
			s2.52,1.99,3.28,3.44s1.13,3.11,1.13,4.96c0,0.5-0.01,0.98-0.04,1.43c-0.03,0.45-0.07,0.84-0.13,1.18h-16.88v-3.44h14.91
			l-2.23,0.67c0-1.9-0.48-3.37-1.43-4.39c-0.95-1.02-2.25-1.53-3.91-1.53c-1.2,0-2.25,0.28-3.15,0.84c-0.9,0.56-1.58,1.39-2.06,2.5
			c-0.48,1.11-0.71,2.46-0.71,4.05c0,1.57,0.25,2.9,0.76,3.99s1.22,1.92,2.14,2.48c0.92,0.56,2.02,0.84,3.28,0.84
			c1.4,0,2.53-0.27,3.4-0.8c0.87-0.53,1.55-1.27,2.06-2.23l3.57,1.68c-0.5,1.01-1.18,1.88-2.04,2.62c-0.85,0.74-1.87,1.31-3.04,1.7
			S274.3,46.19,272.9,46.19z"/>
		<path class="st1" d="M300.79,24.77v3.53h-15.75v-3.53H300.79z M293.57,18.6v20.87c0,1.04,0.27,1.79,0.82,2.27
			c0.55,0.48,1.28,0.71,2.21,0.71c0.76,0,1.41-0.12,1.97-0.36c0.56-0.24,1.08-0.57,1.55-0.99l1.01,3.28c-0.64,0.56-1.44,1-2.37,1.32
			c-0.94,0.32-1.98,0.48-3.13,0.48c-1.2,0-2.31-0.2-3.32-0.59s-1.79-1.03-2.35-1.91c-0.56-0.88-0.85-2.04-0.88-3.46V19.86
			L293.57,18.6z"/>
		<path class="st1" d="M331.96,24.77h4.87l-7.06,21h-4.91l-5.29-15.58l-5,15.58h-4.91l-7.01-21h4.83l4.79,16.59l5.21-16.59h4.49
			l5.21,16.59L331.96,24.77z"/>
		<path class="st1" d="M349.64,24.35c2.04,0,3.85,0.43,5.42,1.3c1.57,0.87,2.79,2.12,3.67,3.76c0.88,1.64,1.32,3.59,1.32,5.86
			c0,2.27-0.44,4.22-1.32,5.86c-0.88,1.64-2.11,2.89-3.67,3.76s-3.37,1.3-5.42,1.3s-3.85-0.43-5.42-1.3s-2.8-2.12-3.7-3.76
			c-0.9-1.64-1.34-3.59-1.34-5.86c0-2.27,0.45-4.22,1.34-5.86c0.9-1.64,2.13-2.89,3.7-3.76C345.79,24.79,347.59,24.35,349.64,24.35z
			 M349.64,27.88c-1.26,0-2.33,0.29-3.21,0.86c-0.88,0.57-1.56,1.41-2.04,2.5c-0.48,1.09-0.71,2.44-0.71,4.03
			c0,1.57,0.24,2.91,0.71,4.01c0.48,1.11,1.16,1.95,2.04,2.52s1.95,0.86,3.21,0.86s2.32-0.29,3.19-0.86
			c0.87-0.57,1.54-1.41,2.02-2.52c0.48-1.11,0.71-2.44,0.71-4.01c0-1.6-0.24-2.94-0.71-4.03c-0.48-1.09-1.15-1.92-2.02-2.5
			C351.96,28.17,350.9,27.88,349.64,27.88z"/>
		<path class="st1" d="M365.72,45.77v-21h3.82l0.42,3.78c0.56-1.37,1.39-2.42,2.5-3.13c1.11-0.71,2.47-1.07,4.09-1.07
			c0.42,0,0.84,0.04,1.26,0.1c0.42,0.07,0.77,0.18,1.05,0.32l-0.63,3.95c-0.31-0.11-0.65-0.2-1.03-0.27
			c-0.38-0.07-0.89-0.1-1.53-0.1c-0.87,0-1.72,0.23-2.56,0.69s-1.53,1.16-2.08,2.08c-0.55,0.92-0.82,2.1-0.82,3.53v11.13H365.72z"/>
		<path class="st1" d="M387.61,15.32v30.45h-4.49V15.32H387.61z M402.94,24.77l-9.37,9.58l-0.97,0.67l-6.59,6.85l-0.04-5.12
			l11.63-11.97H402.94z M394.12,31.83l9.32,13.94h-5.21l-7.48-11.38L394.12,31.83z"/>
	</g>
	<g>
		<path class="st1" d="M26.58,46.99v-4.85c0-0.75-0.61-1.36-1.36-1.36h-0.86c-0.75,0-1.36,0.61-1.36,1.36v4.85
			c-1.36,0.66-2.3,2.05-2.3,3.66c0,2.26,1.83,4.09,4.09,4.09s4.09-1.83,4.09-4.09C28.88,49.04,27.94,47.66,26.58,46.99z"/>
		<path class="st1" d="M42.3,30.48h-1.29v-12.8c0-9.04-7.33-16.37-16.37-16.37l0,0c-8.94,0-16.18,7.24-16.18,16.18v12.99H7.3
			c-2.76,0-5,2.24-5,5v26.48c0,2.76,2.24,5,5,5h35c2.76,0,5-2.24,5-5V35.48C47.3,32.72,45.06,30.48,42.3,30.48z M12.03,17.78
			c0-7.09,5.74-12.83,12.83-12.83c6.73,0,12.19,5.46,12.19,12.19v13.09H12.03V17.78z M43.63,60.72c0,1.39-1.12,2.51-2.51,2.51H8.48
			c-1.39,0-2.51-1.12-2.51-2.51v-24c0-1.39,1.12-2.51,2.51-2.51h32.64c1.39,0,2.51,1.12,2.51,2.51
			C43.63,36.72,43.63,60.72,43.63,60.72z"/>
	</g>
</g>
</svg>
