<?xml version="1.0" encoding="utf-8"?>
<!-- Generator: Adobe Illustrator 26.0.2, SVG Export Plug-In . SVG Version: 6.00 Build 0)  -->
<svg version="1.1" id="Layer_1" xmlns="http://www.w3.org/2000/svg" xmlns:xlink="http://www.w3.org/1999/xlink" x="0px" y="0px"
	 viewBox="0 0 50 50" style="enable-background:new 0 0 50 50;" xml:space="preserve">
<style type="text/css">
	.st0{fill:#9100C3;}
</style>
<g>
	<path class="st0" d="M49,35.89c-1.58,1.94-3.8,2.6-6.4,3.16c0-0.91,0.07-1.71-0.02-2.5c-0.21-1.79-0.36-3.61-0.77-5.36
		c-0.69-2.88-2.5-4.96-5.05-6.21c1.08-0.53,2.15-1.07,3.24-1.58c0.16-0.08,0.41-0.03,0.6,0.01c0.83,0.18,1.67,0.33,2.49,0.57
		c3.82,1.11,5.43,3.13,5.71,7.12c0.04,0.53,0.14,1.05,0.21,1.57C49,33.76,49,34.83,49,35.89z"/>
	<path class="st0" d="M24.9,45.48c-3.66-0.19-7.26-0.49-10.73-1.67c-0.23-0.08-0.47-0.15-0.7-0.25c-3.57-1.45-4.08-2.19-3.94-6
		c0.06-1.49,0.23-2.98,0.44-4.45c0.55-3.86,3.03-5.94,6.59-6.97c0.89-0.26,1.78-0.49,2.68-0.69c0.72-0.16,1.33-0.11,2.03,0.41
		c2.08,1.58,5.6,1.41,7.72-0.14c0.34-0.25,0.9-0.38,1.31-0.29c1.45,0.31,2.91,0.65,4.31,1.13c3.11,1.06,4.96,3.3,5.38,6.53
		c0.31,2.35,0.39,4.74,0.45,7.12c0.01,0.49-0.43,1.11-0.84,1.48c-1.98,1.76-4.44,2.52-6.98,2.93C30.07,45.03,27.48,45.21,24.9,45.48
		z"/>
	<path class="st0" d="M33.22,13.71c-0.02,3.05-0.66,5.54-2.36,7.71c-3.11,3.97-8.61,4-11.73,0.03c-1.21-1.54-2.09-3.28-2.16-5.23
		c-0.07-2.11-0.08-4.27,0.3-6.34c0.61-3.33,2.97-5.14,6.63-5.34c1.3-0.07,2.65,0,3.91,0.27c3.01,0.66,4.74,2.84,5.17,6.27
		C33.11,12.07,33.17,13.07,33.22,13.71z"/>
	<path class="st0" d="M16.54,21.75c-2.77,1.71-6.13,0.93-8.02-1.97c-2.16-3.33-2.09-6.92-0.64-10.49c0.65-1.59,2.09-2.44,3.76-2.62
		c1.39-0.15,2.81-0.03,4.31-0.03C14.1,11.81,13.84,16.82,16.54,21.75z"/>
	<path class="st0" d="M33.92,6.66c1.65,0,3.15-0.16,4.6,0.04c1.88,0.26,3.29,1.4,3.86,3.26c1,3.31,1.14,6.59-0.82,9.65
		c-1.82,2.84-4.99,3.79-7.76,2.4c-0.12-0.06-0.23-0.16-0.4-0.27c1.34-2.3,2.01-4.75,1.99-7.4C35.38,11.73,35.13,9.17,33.92,6.66z"/>
	<path class="st0" d="M13.36,24.91c-5.89,2.96-5.84,8.53-6.11,14.09c-2.26-0.42-4.3-1.07-5.91-2.69c-0.2-0.2-0.36-0.57-0.34-0.85
		c0.16-2.19,0.26-4.39,0.6-6.55c0.33-2.12,1.72-3.55,3.7-4.32c1.12-0.44,2.29-0.74,3.44-1.06c0.68-0.19,1.28-0.12,1.95,0.34
		C11.43,24.39,12.41,24.56,13.36,24.91z"/>
</g>
</svg>
