<?xml version="1.0" encoding="utf-8"?>
<!-- Generator: Adobe Illustrator 26.0.2, SVG Export Plug-In . SVG Version: 6.00 Build 0)  -->
<svg version="1.1" id="Layer_1" xmlns="http://www.w3.org/2000/svg" xmlns:xlink="http://www.w3.org/1999/xlink" x="0px" y="0px"
	 viewBox="0 0 50 50" style="enable-background:new 0 0 50 50;" xml:space="preserve">
<style type="text/css">
	.st0{fill:#9100C3;}
</style>
<g>
	<path class="st0" d="M46.76,14.49c-0.2,0-0.38,0-0.56,0c-5.45,0-10.9,0-16.35,0c-1.01,0-1.96,0.19-2.74,0.89
		c-0.73,0.66-1.18,1.46-1.24,2.46c-0.03,0.41-0.02,0.83-0.02,1.24c0,5.22,0.01,10.44-0.01,15.66c0,1.31,0.43,2.38,1.48,3.17
		c0.72,0.55,1.57,0.73,2.46,0.73c5.48,0,10.96,0,16.43,0c0.17,0,0.34,0,0.57,0c-0.06,1.61,0.31,3.26-0.88,4.64
		c-0.79,0.92-1.8,1.28-2.97,1.28c-3.23,0.01-29.04,0-38.71,0c-1.25,0-2.33-0.39-3.13-1.39c-0.57-0.71-0.8-1.55-0.8-2.44
		c-0.01-10.5-0.01-21,0-31.5c0-2.26,1.6-3.82,3.86-3.82c12.93,0,25.86,0,38.79,0c1.85,0,3.22,1.01,3.7,2.73
		c0.09,0.33,0.13,0.68,0.13,1.02c0.01,1.67,0.01,3.35,0.01,5.02C46.79,14.27,46.78,14.36,46.76,14.49z"/>
	<path class="st0" d="M31.55,36.2c-1.61,0-2.66-0.76-3.05-2.23c-0.08-0.31-0.1-0.65-0.1-0.98c-0.01-4.29-0.01-8.58,0-12.87
		c0-2.02,1.19-3.21,3.2-3.21c4.99,0,9.98,0,14.98,0c1.53,0,2.65,0.81,3.02,2.17c0.08,0.31,0.12,0.65,0.12,0.97
		c0.01,4.33,0.01,8.67,0,13c0,1.54-0.83,2.68-2.21,3.04c-0.34,0.09-0.71,0.09-1.06,0.09C43.96,36.21,34.03,36.21,31.55,36.2z
		 M33.21,26.52c-0.03,1.39,1.09,2.56,2.48,2.59c1.41,0.04,2.59-1.07,2.62-2.45c0.04-1.48-1.07-2.65-2.54-2.67
		C34.4,23.97,33.24,25.12,33.21,26.52z"/>
</g>
</svg>
