<?xml version="1.0" encoding="utf-8"?>
<!-- Generator: Adobe Illustrator 26.0.2, SVG Export Plug-In . SVG Version: 6.00 Build 0)  -->
<svg version="1.1" id="Layer_1" xmlns="http://www.w3.org/2000/svg" xmlns:xlink="http://www.w3.org/1999/xlink" x="0px" y="0px"
	 viewBox="0 0 684 130" style="enable-background:new 0 0 684 130;" xml:space="preserve">
<style type="text/css">
	.st0{fill:#A981AF;}
</style>
<g>
	<g>
		<path class="st0" d="M524.79,81.25c-4.02,1.46-7.71,3.52-11.62,4.06c-8.36,1.16-15.91-4.48-16.91-11.85
			c-1.19-8.8,4.03-15.59,13.45-17.01c4.65-0.7,9.39-0.8,14.09-1.17c1.09-5.54-0.32-9.14-4.19-10.64c-4.77-1.85-9.37-0.14-12.13,4.36
			c-0.42,0.69-1.41,1.39-2.19,1.44c-2.59,0.18-5.19,0.07-8.13,0.07c0.23-5.22,2.86-8.56,6.69-10.87c6.82-4.12,14.16-4.68,21.55-1.76
			c5.77,2.28,8.78,6.86,9.1,13.03c0.21,3.99,0.01,7.99,0.12,11.99c0.19,7.19,0.47,14.37,0.72,21.69c-2.66,0-5.88,0-9.35,0
			C525.57,83.38,525.11,82.13,524.79,81.25z M524.29,61.59c-5.01,0.75-9.56,1.04-13.86,2.22c-3.2,0.87-4.41,3.9-4.09,7.19
			c0.32,3.22,2.29,5.06,5.4,5.87c6.61,1.73,12.54-2.72,12.55-9.51C524.29,65.87,524.29,64.38,524.29,61.59z"/>
		<path class="st0" d="M277.44,84.51c-8.9,0.98-9.34,0.84-10.75-3.49c-3.35,1.41-6.6,3.44-10.1,4.12
			c-8.97,1.74-20.44-4.22-18.23-16.97c1.08-6.23,6.28-10.7,13.81-11.8c2.34-0.34,4.7-0.59,7.06-0.72c2.21-0.12,4.43-0.03,6.58-0.03
			c1.05-6.05-0.38-9.57-4.24-11.03c-4.78-1.8-9.25-0.1-12.08,4.48c-0.38,0.62-1.22,1.31-1.88,1.35c-2.71,0.15-5.44,0.06-8.46,0.06
			c0.31-5.23,2.93-8.59,6.79-10.9c6.84-4.09,14.18-4.65,21.56-1.68c5.92,2.38,8.86,7.14,9.07,13.45c0.17,4.99-0.04,9.99,0.09,14.99
			C276.81,72.29,277.16,78.23,277.44,84.51z M266.28,61.53c-5.09,0.8-9.64,1.14-13.97,2.32c-3.05,0.83-4.22,3.77-4.01,6.89
			c0.22,3.2,2.05,5.17,5.18,6.06c6.75,1.92,12.8-2.55,12.8-9.55C266.28,65.76,266.28,64.28,266.28,61.53z"/>
		<path class="st0" d="M231.23,63.8c-10.73,0-20.69,0-30.58,0c-0.77,4.68,1.52,9.53,5.76,11.72c7,3.62,12.98,1.32,18.51-4.03
			c1.6,1.89,3.09,3.67,4.79,5.68c-4.81,6.54-11.92,8.86-20.05,8.12c-8.78-0.8-15.42-5.18-18.41-13.71
			c-2.88-8.22-2.47-16.51,1.52-24.37c3.92-7.73,12.56-12.15,20.86-10.96c9.31,1.34,14.84,6.59,16.6,16.2
			C230.87,55.98,230.88,59.62,231.23,63.8z M200.35,56.12c6.91,0,13.57,0,20.22,0c0.16-7.08-3.08-11.22-8.99-11.75
			C205.71,43.84,201.34,48.31,200.35,56.12z"/>
		<path class="st0" d="M683.22,63.84c-10.7,0-20.67,0-30.58,0c-0.7,4.8,1.67,9.42,5.82,11.77c5.55,3.15,11.46,1.88,18.66-4.23
			c1.58,1.68,3.18,3.39,4.96,5.28c-5.19,7.05-12.29,9.37-20.41,8.63c-9.11-0.83-15.82-5.51-18.69-14.41
			c-2.36-7.34-2.11-14.83,0.98-22c3.75-8.7,12.37-13.75,21.32-12.67c9.78,1.18,15.54,6.93,17.15,17.39
			C682.93,56.78,682.94,60.02,683.22,63.84z M672.57,56.21c0.15-7.47-3.71-11.96-9.81-11.86c-5.9,0.11-10.47,5.44-10.06,11.86
			C659.25,56.21,665.8,56.21,672.57,56.21z"/>
		<path class="st0" d="M185.27,37.63c-3.15,9.1-6.13,17.69-9.09,26.28c-3.34,9.67-6.52,19.4-10.05,29.01
			c-3.4,9.26-10.63,13.17-18.61,10.44c-0.1-0.03-0.17-0.15-0.38-0.35c0-2.33,0-4.78,0-7.65c6.66,1.04,10.4-2.15,11.76-8.22
			c0.38-1.69,0.34-3.71-0.22-5.33c-4.46-12.98-9.09-25.91-13.66-38.85c-0.57-1.63-1.11-3.27-1.74-5.15c3.79,0,7.24,0,10.95,0
			c3.27,10.4,6.55,20.83,9.83,31.26c0.26,0.01,0.52,0.03,0.78,0.04c0.85-2.79,1.71-5.57,2.55-8.36c2.01-6.69,4.11-13.36,5.98-20.09
			c0.64-2.32,1.68-3.3,4.14-3.07C179.86,37.8,182.24,37.63,185.27,37.63z"/>
		<path class="st0" d="M584.76,84.59c-3.36,0-6.31,0-9.67,0c-0.08-1.42-0.22-2.74-0.23-4.05c-0.02-8.86,0.09-17.73-0.05-26.59
			c-0.14-8.24-6.79-12.02-13.94-8c-2.85,1.6-4.61,3.86-4.55,7.53c0.17,10.22,0.06,20.45,0.06,30.96c-3.37,0-6.53,0-9.96,0
			c0-15.42,0-30.84,0-46.54c2.98,0,5.91,0,9.05,0c0.26,1.16,0.55,2.45,0.76,3.37c3.56-1.6,6.94-3.75,10.63-4.67
			c9.39-2.33,17.19,2.88,17.74,12.52C585.26,60.8,584.76,72.54,584.76,84.59z"/>
		<path class="st0" d="M330.12,84.58c-3.67,0-6.63,0-9.85,0c0-15.56,0-30.97,0-46.67c2.88,0,5.8,0,9,0c0.24,1.17,0.5,2.46,0.7,3.42
			c3.4-1.57,6.68-3.69,10.26-4.61c9.75-2.49,17.46,2.47,18.07,12.39c0.72,11.66,0.17,23.4,0.17,35.36c-3.16,0-6.31,0-9.88,0
			c0-5.7,0.01-11.28,0-16.86c-0.01-4.99,0.13-9.99-0.08-14.98c-0.24-5.56-3.2-8.16-8.68-8.04c-5.6,0.12-9.67,3.72-9.69,8.7
			c-0.04,8.99-0.01,17.97-0.01,26.96C330.12,81.6,330.12,82.94,330.12,84.58z"/>
		<path class="st0" d="M485.76,84.62c-3.12,0-6.1,0-9.67,0c0-1.4,0-2.71,0-4.02c0-8.86,0.03-17.73-0.02-26.59
			c-0.02-3.31-0.32-6.7-3.8-8.33c-3.6-1.68-7.31-1.48-10.72,0.63c-2.57,1.59-4.04,3.8-3.98,7.1c0.15,8.98,0.06,17.97,0.04,26.96
			c0,1.33-0.11,2.67-0.18,4.17c-3.37,0-6.42,0-9.7,0c0-15.6,0-31.01,0-46.67c3.01,0,5.94,0,9.12,0c0.22,1.28,0.43,2.56,0.57,3.36
			c3.77-1.64,7.31-3.81,11.15-4.73c8.6-2.04,16.39,2.67,16.98,11.25C486.38,59.89,485.76,72.12,485.76,84.62z"/>
		<path class="st0" d="M430.16,19.42c-0.5,2.69-0.97,5.24-1.49,8.04c-2.91-0.54-5.65-1.14-8.41-1.55
			c-8.62-1.3-12.5,2.38-11.71,11.57c2.84,0,5.74,0,8.85,0c0,2.68,0,4.88,0,7.58c-2.85,0.14-5.76,0.28-9.04,0.44
			c0,13.08,0,25.9,0,38.97c-3.55,0-6.7,0-10.21,0c0-12.91,0-25.73,0-38.85c-2.51-0.21-4.69-0.4-7.12-0.61c0-2.41,0-4.7,0-7.22
			c2.24-0.1,4.33-0.19,6.85-0.31c0.02-7.72,1.11-15.12,9.19-18.79C414.75,15.22,422.35,16.51,430.16,19.42z"/>
		<path class="st0" d="M625.78,69.25c2.96,0,5.94,0,8.92,0c-0.24,9.94-10.87,17.73-21.71,16.06c-9.85-1.52-16.39-7.15-17.69-17.07
			c-0.79-6.03-0.69-12.65,1.01-18.42c3.77-12.83,19.85-17.83,31.02-10.41c4.83,3.21,7.56,8.48,7.38,14.4c-2.96,0-5.93,0-8.45,0
			c-1.41-2.44-2.3-5.04-4.04-6.8c-4.95-5.01-14.08-2.8-16.01,4.26c-1.31,4.8-1.34,10.12-1.05,15.15c0.37,6.5,4.02,10.16,9.47,10.82
			C619.62,77.82,623.27,75.23,625.78,69.25z"/>
		<path class="st0" d="M298.47,84.55c-3.55,0-6.63,0-10,0c0-15.54,0-31.05,0-46.74c3.1,0,6.04,0,9.26,0
			c0.25,1.11,0.52,2.28,0.78,3.43c2.44-1.5,4.71-3.46,7.35-4.41c5.59-2.01,6.87-0.92,6.87,4.86c0,1.46,0,2.92,0,4.73
			c-2.39,0-4.36-0.12-6.32,0.02c-5,0.37-7.91,3.53-7.92,8.51C298.45,64.67,298.47,74.4,298.47,84.55z"/>
		<path class="st0" d="M425.37,37.82c3.19,0,6.26,0,9.63,0c0,15.52,0,31.03,0,46.72c-3.21,0-6.28,0-9.63,0
			C425.37,69,425.37,53.51,425.37,37.82z"/>
		<path class="st0" d="M382.45,79.81c-0.04,3.4-2.5,5.7-6.03,5.65c-3.47-0.05-5.97-2.52-5.92-5.83c0.06-3.43,2.41-5.56,6.08-5.53
			C380.27,74.14,382.49,76.29,382.45,79.81z"/>
	</g>
	<path class="st0" d="M48.6,31.23c0.02,0.21,0.03,0.38,0.06,0.55c0.82,3.82,1.64,7.64,2.46,11.47c1.11,5.15,2.22,10.31,3.33,15.46
		c0.15,0.69,0.16,0.69,0.84,0.51c4.51-1.2,9.02-2.39,13.52-3.59c4.15-1.1,8.3-2.21,12.45-3.31c0.29-0.08,0.46-0.15,0.36-0.51
		c-0.75-2.69-1.5-5.37-2.23-8.07c-0.09-0.31-0.2-0.4-0.54-0.32c-2.42,0.56-4.85,1.09-7.27,1.62c-1.07,0.24-2.14,0.47-3.29,0.73
		c0.09-0.28,0.16-0.47,0.22-0.66c1.12-3.21,2.16-6.44,2.57-9.84c0.35-2.96,0.39-5.92-0.01-8.88c-0.56-4.15-1.95-8-4.25-11.51
		C63.22,9.36,58.25,5.5,52.18,3.04c-2.06-0.84-4.19-1.47-6.42-1.54c-1.91-0.06-3.82,0.01-5.72,0.08c-2.3,0.09-4.55,0.49-6.78,1.06
		c-5.09,1.31-9.6,3.69-13.42,7.32c-2.9,2.76-5.04,6.02-6.66,9.66c-1.8,4.06-2.91,8.28-3.02,12.74c-0.05,2.15,0.16,4.3,0.64,6.4
		c1.24,5.31,3.41,10.13,7.28,14.11c4.15,4.27,8.75,8,13.54,11.51c0.12,0.09,0.26,0.16,0.47,0.29c0.07-0.8,0.14-1.52,0.19-2.23
		c0.17-2.71,0.33-5.41,0.52-8.12c0.02-0.32-0.08-0.5-0.32-0.68c-1.31-1.06-2.65-2.09-3.91-3.21c-2.55-2.26-4.85-4.74-6.57-7.71
		c-1.38-2.38-2.26-4.94-2.5-7.67c-0.13-1.43-0.12-2.89-0.01-4.32c0.12-1.49,0.28-3.01,0.68-4.45c1.29-4.62,3.65-8.59,7.56-11.51
		c3.43-2.56,7.32-3.85,11.59-4.05c1.97-0.09,3.9,0.21,5.83,0.54c1.69,0.29,3.37,0.64,4.95,1.34c2.94,1.3,5.25,3.45,7.23,5.89
		c3.81,4.72,5.57,10.12,4.9,16.23c-0.28,2.56-0.98,5-2.11,7.31c-0.06,0.13-0.14,0.25-0.26,0.46c-0.08-0.29-0.12-0.46-0.16-0.62
		c-0.96-4.01-1.92-8.01-2.86-12.02c-0.09-0.4-0.26-0.44-0.6-0.36c-1.09,0.26-2.19,0.5-3.28,0.75C51.51,30.56,50.07,30.89,48.6,31.23
		z M50.67,65.58c-0.18,1.87-0.35,3.62-0.52,5.38c-0.14,1.5-0.22,3.01-0.43,4.5c-0.09,0.63,0.07,0.99,0.55,1.38
		c2.54,2.03,4.91,4.24,7.01,6.74c3.92,4.66,5.77,9.96,5.14,16.08c-0.26,2.55-0.79,4.99-1.84,7.33c-2.02,4.5-5.09,7.99-9.54,10.21
		c-2.21,1.1-4.55,1.77-6.99,2.03c-1.26,0.13-2.54,0.18-3.8,0.07c-1.51-0.13-3.01-0.44-4.5-0.74c-1.93-0.38-3.82-0.89-5.51-1.93
		c-2.92-1.8-5.26-4.22-7.13-7.07c-2.09-3.19-3.31-6.7-3.55-10.51c-0.19-3.01,0.23-5.96,1.28-8.8c0.4-1.08,0.9-2.12,1.35-3.17
		c0.05,0.01,0.11,0.02,0.16,0.03c0.16,0.78,0.33,1.55,0.49,2.33c0.72,3.43,1.45,6.87,2.16,10.3c0.08,0.38,0.2,0.5,0.61,0.41
		c2.45-0.51,4.9-0.98,7.35-1.46c0.33-0.06,0.35-0.21,0.3-0.51c-0.54-2.86-1.07-5.73-1.61-8.6c-0.69-3.72-1.39-7.43-2.09-11.15
		c-0.48-2.57-0.97-5.13-1.44-7.7c-0.06-0.31-0.18-0.46-0.52-0.34c-0.27,0.09-0.56,0.14-0.84,0.2c-6.04,1.43-12.07,2.86-18.11,4.29
		c-2.46,0.58-4.93,1.16-7.39,1.75c-0.26,0.06-0.59,0.06-0.47,0.53c0.69,2.7,1.35,5.41,2.02,8.12c0.07,0.27,0.17,0.39,0.5,0.33
		c2.67-0.53,5.34-1.05,8.02-1.56c0.85-0.17,1.71-0.32,2.62-0.49c-0.31,0.83-0.59,1.58-0.88,2.33c-2.11,5.53-3.08,11.21-2.4,17.13
		c0.34,2.97,1.11,5.83,2.37,8.54c2.78,5.98,7.19,10.43,12.89,13.64c3.31,1.86,6.81,3.16,10.66,3.29c3.68,0.12,7.35-0.04,10.96-0.85
		c5.56-1.25,10.47-3.73,14.6-7.69c3.29-3.15,5.54-6.97,7.23-11.16c1.59-3.94,2.47-8.03,2.32-12.3c-0.05-1.52-0.22-3.04-0.49-4.53
		c-0.63-3.45-1.83-6.72-3.54-9.78c-1.19-2.14-2.82-3.95-4.5-5.7c-3.71-3.88-7.8-7.33-12.04-10.6C51.04,65.78,50.9,65.72,50.67,65.58
		z M45.98,65.52c0-13.13,0-26.27,0-39.4c0-0.81,0-0.81-0.83-0.81c-2.4,0-4.79,0-7.19,0c-0.91,0-0.91,0-0.91,0.92
		c0,26.19,0,52.38,0,78.56c0,0.18,0.01,0.35,0,0.53c-0.01,0.31,0.14,0.42,0.44,0.42c2.68-0.01,5.37-0.01,8.05,0
		c0.31,0,0.44-0.13,0.42-0.43c-0.01-0.18,0-0.35,0-0.53C45.98,91.69,45.98,78.61,45.98,65.52z"/>
</g>
</svg>
