<?xml version="1.0" encoding="utf-8"?>
<!-- Generator: Adobe Illustrator 26.0.2, SVG Export Plug-In . SVG Version: 6.00 Build 0)  -->
<svg version="1.1" id="Layer_1" xmlns="http://www.w3.org/2000/svg" xmlns:xlink="http://www.w3.org/1999/xlink" x="0px" y="0px"
	 viewBox="0 0 187.32 47.35" style="enable-background:new 0 0 187.32 47.35;" xml:space="preserve">
<style type="text/css">
	.st0{fill-rule:evenodd;clip-rule:evenodd;fill:none;stroke:#A981AF;stroke-miterlimit:10;}
	.st1{fill-rule:evenodd;clip-rule:evenodd;fill:#A981AF;}
	.st2{fill:url(#SVGID_1_);}
	.st3{fill:#A981AF;}
</style>
<g>
	<path class="st0" d="M21.97,0.87c0.8,0,1.65,0.2,2.37,0.63l16.3,9.1c1.45,0.8,2.35,2.32,2.37,3.97v18.28c0,1.6-0.94,3.13-2.37,3.96
		l-16.3,9.04c-0.72,0.42-1.54,0.64-2.37,0.63c-0.83,0-1.65-0.22-2.37-0.63l-16.3-9.1c-1.45-0.81-2.35-2.33-2.36-3.98v-18.2
		c0-1.6,0.93-3.13,2.37-3.97l16.37-9.1C20.38,1.09,21.17,0.87,21.97,0.87L21.97,0.87z"/>
	<path class="st1" d="M21.98,4.13c0.96,0,1.86,0.27,2.7,0.7l12.82,7.19c1.66,0.9,2.69,2.63,2.7,4.52v14.31c0,1.88-1.03,3.6-2.7,4.52
		L24.68,42.5c-0.82,0.48-1.76,0.72-2.71,0.71c-0.95,0.01-1.89-0.23-2.71-0.7l-12.8-7.15c-1.66-0.9-2.7-2.63-2.71-4.52v-14.3
		c0-1.88,1.03-3.6,2.7-4.52l12.83-7.19C20.1,4.36,21.04,4.12,21.98,4.13z M21.98,5.81c-0.63,0-1.25,0.17-1.8,0.49L7.29,13.43
		c-1.12,0.63-1.83,1.81-1.86,3.1V30.8c0,1.3,0.74,2.45,1.86,3.1l12.81,7.13c1.16,0.65,2.57,0.65,3.73,0l12.81-7.07
		c1.12-0.63,1.83-1.81,1.86-3.1V16.53c-0.02-1.29-0.73-2.48-1.86-3.1l-12.8-7.14C23.27,5.98,22.63,5.81,21.98,5.81z M22.07,10.46
		c0.5,0,1.01,0.1,1.47,0.43l9.19,5.1c0.9,0.48,1.46,1.41,1.46,2.43v10.19c0,0.97-0.56,1.95-1.47,2.43l-9.19,5.1
		c-0.45,0.27-0.95,0.38-1.46,0.38s-1.02-0.11-1.47-0.38l-9.19-5.1c-0.9-0.48-1.46-1.41-1.46-2.43V18.37c0-0.98,0.56-1.95,1.46-2.44
		l9.2-5.1C21.05,10.57,21.56,10.46,22.07,10.46z M22.07,11.86c-0.23,0-0.5,0.06-0.73,0.22l-9.14,5.1c-0.44,0.26-0.71,0.73-0.73,1.24
		v10.24c0,0.54,0.28,0.98,0.73,1.25L21.4,35c0.22,0.16,0.44,0.22,0.73,0.22c0.28,0,0.5-0.11,0.73-0.22l9.19-5.1
		c0.44-0.26,0.72-0.73,0.73-1.24V18.43c0-0.54-0.28-0.97-0.73-1.25l-9.25-5.09c-0.21-0.15-0.47-0.23-0.73-0.22L22.07,11.86z
		 M22.17,16.79c0.27,0,0.5,0.05,0.72,0.22l4.74,2.6c0.44,0.27,0.72,0.74,0.73,1.25v5.26c0,0.54-0.28,0.97-0.73,1.24l-4.74,2.6
		c-0.22,0.17-0.45,0.22-0.73,0.22c-0.23,0-0.5-0.1-0.73-0.21l-4.73-2.6c-0.45-0.26-0.72-0.73-0.74-1.25v-5.26
		c0-0.55,0.28-0.98,0.74-1.25l4.73-2.6c0.22-0.17,0.45-0.22,0.73-0.22L22.17,16.79z M22.22,18.09H22.1l-4.73,2.6l-0.05,5.37
		l4.78,2.71l4.85-2.6l0.06-5.37l-4.8-2.7L22.22,18.09z"/>
	
		<linearGradient id="SVGID_1_" gradientUnits="userSpaceOnUse" x1="-303.2397" y1="399.8641" x2="-303.2397" y2="398.8641" gradientTransform="matrix(136.01 0 0 -13.4548 41362 5398.0137)">
		<stop  offset="0" style="stop-color:#FFFFFF"/>
		<stop  offset="1" style="stop-color:#FFFFFF"/>
	</linearGradient>
	<path class="st2" d="M52.11,31.1l1.44-3.87h5.44l1.4,3.87h1.89l-5.02-12.85h-1.9l-5,12.85C50.36,31.1,52.11,31.1,52.11,31.1z
		 M58.45,25.79h-4.36l2.18-6h0.03L58.45,25.79z M69.65,31.1v-4.5l2.14-2l4.65,6.5h2.16l-5.64-7.67l5.42-5.18h-2.21l-6.52,6.4v-6.4
		h-1.71V31.1C67.94,31.1,69.65,31.1,69.65,31.1z M86.05,31.1v-5.49h4.18c0.42,0,0.76,0.06,1.01,0.19c0.25,0.12,0.46,0.3,0.61,0.5
		c0.16,0.21,0.27,0.46,0.34,0.74c0.17,0.6,0.27,1.22,0.3,1.85l0.03,0.9c0,0.29,0.04,0.54,0.08,0.77s0.12,0.4,0.24,0.54h1.91
		c-0.18-0.22-0.32-0.48-0.4-0.75c-0.09-0.29-0.16-0.59-0.21-0.89c-0.05-0.31-0.08-0.63-0.1-0.95c0-0.33-0.02-0.64-0.05-0.96
		c-0.03-0.3-0.08-0.6-0.15-0.9c-0.06-0.27-0.16-0.54-0.3-0.78c-0.14-0.24-0.33-0.44-0.56-0.6c-0.27-0.18-0.58-0.31-0.91-0.36v-0.04
		c0.7-0.16,1.31-0.59,1.7-1.2c0.36-0.62,0.55-1.34,0.53-2.06c0.04-0.93-0.34-1.84-1.04-2.46c-0.69-0.6-1.64-0.9-2.87-0.9h-6.05V31.1
		H86.05L86.05,31.1z M89.62,24.17h-3.56v-4.48h4.24c0.8,0,1.39,0.2,1.75,0.61c0.36,0.4,0.54,0.94,0.54,1.58
		c0,0.47-0.08,0.85-0.24,1.15c-0.15,0.28-0.38,0.53-0.65,0.7c-0.27,0.17-0.59,0.29-0.95,0.35S90.02,24.17,89.62,24.17z
		 M106.52,31.39c1.01,0,1.9-0.18,2.67-0.55c0.75-0.35,1.4-0.86,1.93-1.49c0.52-0.64,0.92-1.37,1.16-2.15c0.52-1.64,0.52-3.41,0-5.05
		c-0.24-0.79-0.64-1.52-1.16-2.16c-0.53-0.63-1.19-1.14-1.93-1.49c-0.84-0.39-1.76-0.58-2.68-0.56c-1.77-0.07-3.47,0.69-4.6,2.05
		c-0.53,0.64-0.92,1.37-1.17,2.16c-0.26,0.82-0.38,1.67-0.38,2.52c0,0.88,0.13,1.72,0.38,2.53c0.26,0.81,0.65,1.53,1.16,2.15
		c0.53,0.63,1.18,1.14,1.93,1.49C104.6,31.21,105.49,31.39,106.52,31.39L106.52,31.39z M106.52,29.97c-0.79,0-1.46-0.16-2.02-0.46
		c-0.55-0.29-1.03-0.71-1.39-1.22c-0.37-0.51-0.64-1.09-0.8-1.7c-0.34-1.25-0.34-2.58,0-3.83c0.18-0.63,0.44-1.2,0.8-1.7
		c0.36-0.51,0.84-0.93,1.39-1.22c0.56-0.3,1.23-0.46,2.01-0.46s1.45,0.15,2.02,0.46c0.55,0.3,1.02,0.71,1.38,1.22
		c0.36,0.5,0.63,1.07,0.8,1.7c0.34,1.25,0.34,2.58,0,3.83c-0.16,0.61-0.43,1.19-0.8,1.7c-0.36,0.51-0.83,0.92-1.38,1.22
		C107.96,29.81,107.29,29.97,106.52,29.97L106.52,29.97z M120.86,31.1v-5.26h3.92c1.3,0.02,2.28-0.31,2.94-0.99
		c0.67-0.67,1-1.6,1-2.8c0-1.2-0.33-2.14-1-2.8c-0.66-0.67-1.64-1-2.94-1h-5.63V31.1h1.7H120.86z M124.21,24.4h-3.35v-4.7h3.35
		c0.97,0,1.68,0.2,2.13,0.6s0.67,0.99,0.67,1.76c0,0.76-0.22,1.35-0.67,1.76c-0.45,0.4-1.16,0.6-2.13,0.6V24.4z M140.65,31.39
		c1.02,0,1.91-0.18,2.68-0.55c0.75-0.35,1.4-0.86,1.93-1.49c0.52-0.64,0.92-1.37,1.16-2.15c0.53-1.64,0.53-3.41,0-5.05
		c-0.24-0.79-0.64-1.52-1.16-2.16c-0.53-0.63-1.19-1.14-1.93-1.49c-0.77-0.37-1.66-0.56-2.68-0.56s-1.92,0.19-2.69,0.56
		c-0.76,0.37-1.4,0.87-1.92,1.5c-0.52,0.64-0.92,1.37-1.16,2.15c-0.26,0.81-0.39,1.66-0.39,2.52c0,0.88,0.13,1.72,0.39,2.53
		c0.26,0.81,0.64,1.53,1.16,2.15c0.52,0.63,1.18,1.14,1.92,1.49C138.73,31.21,139.63,31.39,140.65,31.39z M140.65,29.97
		c-0.78,0-1.45-0.16-2.02-0.46c-0.55-0.3-1.02-0.71-1.38-1.22c-0.37-0.51-0.64-1.09-0.8-1.7c-0.34-1.25-0.34-2.58,0-3.83
		c0.17-0.63,0.44-1.2,0.8-1.7c0.36-0.51,0.83-0.92,1.38-1.22c0.57-0.3,1.24-0.46,2.02-0.46s1.45,0.16,2.01,0.46
		c0.55,0.29,1.03,0.71,1.39,1.22c0.36,0.5,0.62,1.07,0.8,1.7c0.34,1.25,0.34,2.58,0,3.83c-0.16,0.61-0.43,1.19-0.8,1.7
		c-0.36,0.51-0.84,0.93-1.39,1.22C142.1,29.81,141.43,29.97,140.65,29.97z M161.81,31.1v-1.44h-6.8V18.25h-1.71V31.1H161.81
		L161.81,31.1z M169.49,31.1V18.25h-1.7V31.1H169.49z M181.34,31.39c0.6,0,1.18-0.07,1.78-0.2c0.57-0.13,1.11-0.36,1.6-0.68
		c0.49-0.3,0.88-0.7,1.19-1.18c0.3-0.49,0.46-1.07,0.46-1.76c0-0.63-0.12-1.16-0.36-1.58c-0.23-0.42-0.54-0.77-0.93-1.05
		c-0.41-0.28-0.86-0.5-1.33-0.65c-0.49-0.17-0.99-0.31-1.5-0.43c-0.5-0.12-1-0.23-1.5-0.33c-0.45-0.09-0.89-0.22-1.32-0.39
		c-0.35-0.13-0.67-0.33-0.94-0.6c-0.24-0.26-0.36-0.61-0.35-0.96c0-0.42,0.08-0.77,0.24-1.05c0.16-0.28,0.38-0.51,0.65-0.68
		c0.29-0.17,0.6-0.3,0.93-0.36c0.35-0.07,0.7-0.1,1.06-0.1c0.89,0,1.62,0.2,2.19,0.61c0.57,0.42,0.9,1.09,1,2.01h1.61
		c0-0.63-0.14-1.25-0.4-1.83c-0.23-0.49-0.57-0.93-1-1.27c-0.45-0.34-0.96-0.59-1.5-0.73c-0.6-0.16-1.21-0.24-1.83-0.24
		c-0.58,0-1.16,0.08-1.72,0.23c-0.54,0.14-1.04,0.37-1.5,0.68c-0.44,0.3-0.79,0.7-1.05,1.17c-0.28,0.52-0.41,1.09-0.4,1.68
		c0,0.6,0.13,1.08,0.36,1.47c0.23,0.4,0.54,0.7,0.93,0.95s0.84,0.45,1.33,0.6c0.5,0.15,1,0.28,1.5,0.4c0.51,0.1,1.01,0.22,1.5,0.33
		c0.5,0.1,0.94,0.25,1.33,0.42s0.7,0.4,0.93,0.68c0.24,0.27,0.35,0.63,0.35,1.08c0,0.46-0.1,0.85-0.28,1.15
		c-0.2,0.3-0.45,0.53-0.76,0.7c-0.33,0.18-0.68,0.31-1.05,0.38c-0.85,0.18-1.73,0.16-2.57-0.07c-0.43-0.11-0.84-0.3-1.2-0.56
		c-0.34-0.26-0.62-0.59-0.82-0.97c-0.22-0.43-0.33-0.91-0.32-1.39h-1.62c0,0.78,0.14,1.45,0.43,2.02c0.28,0.57,0.66,1.04,1.15,1.4
		c0.48,0.37,1.05,0.65,1.69,0.83S180.62,31.39,181.34,31.39L181.34,31.39z"/>
	<path class="st3" d="M52.11,31.1l1.44-3.87h5.44l1.4,3.87h1.89l-5.02-12.85h-1.9l-5,12.85C50.36,31.1,52.11,31.1,52.11,31.1z
		 M58.45,25.79h-4.36l2.18-6h0.03L58.45,25.79z M69.65,31.1v-4.5l2.14-2l4.65,6.5h2.16l-5.64-7.67l5.42-5.18h-2.21l-6.52,6.4v-6.4
		h-1.71V31.1C67.94,31.1,69.65,31.1,69.65,31.1z M86.05,31.1v-5.49h4.18c0.42,0,0.76,0.06,1.01,0.19c0.25,0.12,0.46,0.3,0.61,0.5
		c0.16,0.21,0.27,0.46,0.34,0.74c0.17,0.6,0.27,1.22,0.3,1.85l0.03,0.9c0,0.29,0.04,0.54,0.08,0.77s0.12,0.4,0.24,0.54h1.91
		c-0.18-0.22-0.32-0.48-0.4-0.75c-0.09-0.29-0.16-0.59-0.21-0.89c-0.05-0.31-0.08-0.63-0.1-0.95c0-0.33-0.02-0.64-0.05-0.96
		c-0.03-0.3-0.08-0.6-0.15-0.9c-0.06-0.27-0.16-0.54-0.3-0.78c-0.14-0.24-0.33-0.44-0.56-0.6c-0.27-0.18-0.58-0.31-0.91-0.36v-0.04
		c0.7-0.16,1.31-0.59,1.7-1.2c0.36-0.62,0.55-1.34,0.53-2.06c0.04-0.93-0.34-1.84-1.04-2.46c-0.69-0.6-1.64-0.9-2.87-0.9h-6.05V31.1
		H86.05L86.05,31.1z M89.62,24.17h-3.56v-4.48h4.24c0.8,0,1.39,0.2,1.75,0.61c0.36,0.4,0.54,0.94,0.54,1.58
		c0,0.47-0.08,0.85-0.24,1.15c-0.15,0.28-0.38,0.53-0.65,0.7c-0.27,0.17-0.59,0.29-0.95,0.35S90.02,24.17,89.62,24.17z
		 M106.52,31.39c1.01,0,1.9-0.18,2.67-0.55c0.75-0.35,1.4-0.86,1.93-1.49c0.52-0.64,0.92-1.37,1.16-2.15c0.52-1.64,0.52-3.41,0-5.05
		c-0.24-0.79-0.64-1.52-1.16-2.16c-0.53-0.63-1.19-1.14-1.93-1.49c-0.84-0.39-1.76-0.58-2.68-0.56c-1.77-0.07-3.47,0.69-4.6,2.05
		c-0.53,0.64-0.92,1.37-1.17,2.16c-0.26,0.82-0.38,1.67-0.38,2.52c0,0.88,0.13,1.72,0.38,2.53c0.26,0.81,0.65,1.53,1.16,2.15
		c0.53,0.63,1.18,1.14,1.93,1.49C104.6,31.21,105.49,31.39,106.52,31.39L106.52,31.39z M106.52,29.97c-0.79,0-1.46-0.16-2.02-0.46
		c-0.55-0.29-1.03-0.71-1.39-1.22c-0.37-0.51-0.64-1.09-0.8-1.7c-0.34-1.25-0.34-2.58,0-3.83c0.18-0.63,0.44-1.2,0.8-1.7
		c0.36-0.51,0.84-0.93,1.39-1.22c0.56-0.3,1.23-0.46,2.01-0.46s1.45,0.15,2.02,0.46c0.55,0.3,1.02,0.71,1.38,1.22
		c0.36,0.5,0.63,1.07,0.8,1.7c0.34,1.25,0.34,2.58,0,3.83c-0.16,0.61-0.43,1.19-0.8,1.7c-0.36,0.51-0.83,0.92-1.38,1.22
		C107.96,29.81,107.29,29.97,106.52,29.97L106.52,29.97z M120.86,31.1v-5.26h3.92c1.3,0.02,2.28-0.31,2.94-0.99
		c0.67-0.67,1-1.6,1-2.8c0-1.2-0.33-2.14-1-2.8c-0.66-0.67-1.64-1-2.94-1h-5.63V31.1h1.7H120.86z M124.21,24.4h-3.35v-4.7h3.35
		c0.97,0,1.68,0.2,2.13,0.6s0.67,0.99,0.67,1.76c0,0.76-0.22,1.35-0.67,1.76c-0.45,0.4-1.16,0.6-2.13,0.6V24.4z M140.65,31.39
		c1.02,0,1.91-0.18,2.68-0.55c0.75-0.35,1.4-0.86,1.93-1.49c0.52-0.64,0.92-1.37,1.16-2.15c0.53-1.64,0.53-3.41,0-5.05
		c-0.24-0.79-0.64-1.52-1.16-2.16c-0.53-0.63-1.19-1.14-1.93-1.49c-0.77-0.37-1.66-0.56-2.68-0.56s-1.92,0.19-2.69,0.56
		c-0.76,0.37-1.4,0.87-1.92,1.5c-0.52,0.64-0.92,1.37-1.16,2.15c-0.26,0.81-0.39,1.66-0.39,2.52c0,0.88,0.13,1.72,0.39,2.53
		c0.26,0.81,0.64,1.53,1.16,2.15c0.52,0.63,1.18,1.14,1.92,1.49C138.73,31.21,139.63,31.39,140.65,31.39z M140.65,29.97
		c-0.78,0-1.45-0.16-2.02-0.46c-0.55-0.3-1.02-0.71-1.38-1.22c-0.37-0.51-0.64-1.09-0.8-1.7c-0.34-1.25-0.34-2.58,0-3.83
		c0.17-0.63,0.44-1.2,0.8-1.7c0.36-0.51,0.83-0.92,1.38-1.22c0.57-0.3,1.24-0.46,2.02-0.46s1.45,0.16,2.01,0.46
		c0.55,0.29,1.03,0.71,1.39,1.22c0.36,0.5,0.62,1.07,0.8,1.7c0.34,1.25,0.34,2.58,0,3.83c-0.16,0.61-0.43,1.19-0.8,1.7
		c-0.36,0.51-0.84,0.93-1.39,1.22C142.1,29.81,141.43,29.97,140.65,29.97z M161.81,31.1v-1.44h-6.8V18.25h-1.71V31.1H161.81
		L161.81,31.1z M169.49,31.1V18.25h-1.7V31.1H169.49z M181.34,31.39c0.6,0,1.18-0.07,1.78-0.2c0.57-0.13,1.11-0.36,1.6-0.68
		c0.49-0.3,0.88-0.7,1.19-1.18c0.3-0.49,0.46-1.07,0.46-1.76c0-0.63-0.12-1.16-0.36-1.58c-0.23-0.42-0.54-0.77-0.93-1.05
		c-0.41-0.28-0.86-0.5-1.33-0.65c-0.49-0.17-0.99-0.31-1.5-0.43c-0.5-0.12-1-0.23-1.5-0.33c-0.45-0.09-0.89-0.22-1.32-0.39
		c-0.35-0.13-0.67-0.33-0.94-0.6c-0.24-0.26-0.36-0.61-0.35-0.96c0-0.42,0.08-0.77,0.24-1.05c0.16-0.28,0.38-0.51,0.65-0.68
		c0.29-0.17,0.6-0.3,0.93-0.36c0.35-0.07,0.7-0.1,1.06-0.1c0.89,0,1.62,0.2,2.19,0.61c0.57,0.42,0.9,1.09,1,2.01h1.61
		c0-0.63-0.14-1.25-0.4-1.83c-0.23-0.49-0.57-0.93-1-1.27c-0.45-0.34-0.96-0.59-1.5-0.73c-0.6-0.16-1.21-0.24-1.83-0.24
		c-0.58,0-1.16,0.08-1.72,0.23c-0.54,0.14-1.04,0.37-1.5,0.68c-0.44,0.3-0.79,0.7-1.05,1.17c-0.28,0.52-0.41,1.09-0.4,1.68
		c0,0.6,0.13,1.08,0.36,1.47c0.23,0.4,0.54,0.7,0.93,0.95s0.84,0.45,1.33,0.6c0.5,0.15,1,0.28,1.5,0.4c0.51,0.1,1.01,0.22,1.5,0.33
		c0.5,0.1,0.94,0.25,1.33,0.42s0.7,0.4,0.93,0.68c0.24,0.27,0.35,0.63,0.35,1.08c0,0.46-0.1,0.85-0.28,1.15
		c-0.2,0.3-0.45,0.53-0.76,0.7c-0.33,0.18-0.68,0.31-1.05,0.38c-0.85,0.18-1.73,0.16-2.57-0.07c-0.43-0.11-0.84-0.3-1.2-0.56
		c-0.34-0.26-0.62-0.59-0.82-0.97c-0.22-0.43-0.33-0.91-0.32-1.39h-1.62c0,0.78,0.14,1.45,0.43,2.02c0.28,0.57,0.66,1.04,1.15,1.4
		c0.48,0.37,1.05,0.65,1.69,0.83S180.62,31.39,181.34,31.39L181.34,31.39z"/>
</g>
</svg>
