<?xml version="1.0" encoding="utf-8"?>
<!-- Generator: Adobe Illustrator 26.0.2, SVG Export Plug-In . SVG Version: 6.00 Build 0)  -->
<svg version="1.1" id="Layer_1" xmlns="http://www.w3.org/2000/svg" xmlns:xlink="http://www.w3.org/1999/xlink" x="0px" y="0px"
	 viewBox="0 0 50 50" style="enable-background:new 0 0 50 50;" xml:space="preserve">
<style type="text/css">
	.st0{fill:#9100C3;}
</style>
<g>
	<path class="st0" d="M29.69,35.8c-0.8-0.87-1.8-1.96-2.81-3.05c-0.18-0.2-0.36-0.39-0.58-0.63c0.27-0.29,0.51-0.56,0.77-0.81
		c4.54-4.52,9.09-9.04,13.62-13.57c2.38-2.38,2.6-5.84,0.55-8.22c-2.06-2.4-5.99-2.73-8.39-0.67c-0.94,0.81-1.81,1.71-2.62,2.49
		c-1.25-1.25-2.47-2.48-3.72-3.74c4.24-5.4,10.31-7.37,16.35-3.74c5.62,3.37,7.07,11.86,2.55,16.56
		C40.42,25.62,35.11,30.53,29.69,35.8z"/>
	<path class="st0" d="M38.49,30.13c1.31-1.31,2.55-2.54,3.83-3.81c2.86,2.57,5.33,5.35,5.7,9.48c0.62,6.83-5.57,12.87-12.39,12.08
		c-2.68-0.31-5.01-1.28-6.91-3.2c-4.84-4.88-9.67-9.78-14.49-14.65c1.16-1.14,2.4-2.36,3.71-3.64c0.19,0.18,0.46,0.42,0.71,0.68
		c4.59,4.57,9.16,9.15,13.77,13.7c2.89,2.85,7.48,2.27,9.44-1.14c1.32-2.29,0.94-5.16-0.98-7.18C40.11,31.64,39.28,30.9,38.49,30.13
		z"/>
	<path class="st0" d="M19.9,38.52c0.22,0.2,0.4,0.35,0.57,0.52c1.05,1.05,2.09,2.1,3.14,3.15c-3.83,4.87-8.61,7.05-14.12,5.11
		C1.69,44.56-0.58,34.89,5,28.94c0.25-0.27,0.51-0.54,0.77-0.81c4.64-4.7,9.29-9.4,13.87-14.04c1.39,1.39,2.64,2.65,3.82,3.83
		c-1.95,2.01-4,4.15-6.08,6.26c-2.72,2.76-5.48,5.48-8.21,8.24c-3.25,3.28-1.88,7.88,1.44,9.54c2.3,1.16,5.01,0.68,7.15-1.33
		C18.46,39.96,19.15,39.26,19.9,38.52z"/>
	<path class="st0" d="M11.37,19.91c-1.23,1.21-2.48,2.44-3.75,3.7c-2.67-2.41-5.33-4.98-5.61-8.97C1.66,9.81,3.51,6,7.71,3.49
		c3-1.79,8.24-2.41,12,0.67c1.09,0.9,2.21,1.78,3.21,2.78c4.32,4.32,8.59,8.68,12.82,12.95c-1.15,1.2-2.37,2.47-3.8,3.96
		c-0.22-0.32-0.38-0.68-0.64-0.94c-4.1-4.11-8.21-8.2-12.33-12.29c-0.67-0.66-1.41-1.26-2.1-1.9c-2.22-2.06-5.88-1.43-7.6,0.21
		c-2.23,2.13-2.61,5.59-0.78,7.9C9.37,17.94,10.42,18.9,11.37,19.91z"/>
</g>
</svg>
