<?xml version="1.0" encoding="utf-8"?>
<!-- Generator: Adobe Illustrator 26.0.2, SVG Export Plug-In . SVG Version: 6.00 Build 0)  -->
<svg version="1.1" id="Layer_1" xmlns="http://www.w3.org/2000/svg" xmlns:xlink="http://www.w3.org/1999/xlink" x="0px" y="0px"
	 viewBox="0 0 780 174" style="enable-background:new 0 0 780 174;" xml:space="preserve">
<style type="text/css">
	.st0{fill:#A981AF;}
</style>
<path class="st0" d="M87,0C38.9,0,0,39,0,87s38.9,87,87,87s87-38.9,87-87C174,39,135,0,87,0 M94,91.1l30.5,30.5
	c2.5,2.5,2.2,6.6-0.6,8.7c-9.4,7.4-21.2,11.8-34,11.8c-32.5,0-58.5-28.2-54.7-61.4c2.8-25.5,23.5-46,49.1-48.5
	c15.1-1.5,29.1,3.1,39.9,11.6c2.7,2.1,2.8,6.1,0.4,8.5L94,82.9C91.7,85.2,91.7,88.8,94,91.1 M198.2,111.7c-7.1,0-12.7,5.7-12.7,12.8
	s5.6,12.8,12.7,12.8s12.8-5.7,12.8-12.8C211,117.4,205.3,111.7,198.2,111.7"/>
<path class="st0" d="M226.9,124.8V50.5c0-8.4,4.7-13.2,12.6-13.2h29.8c24.7,0,38,12.2,38,32.7c0,11.7-5.4,22.1-15.4,27.2l12.1,20.7
	c2.2,3.6,2.7,5.7,2.7,8.6c0,6.7-5.2,11.5-12.6,11.5c-6.1,0-8.7-2.1-13-9.8l-14.7-26.4H252v23.1c0,8.3-4.6,13.1-12.6,13.1
	C231.5,137.9,226.9,133.1,226.9,124.8 M266.8,84.4c9.3,0,14.8-5.4,14.8-14c0-8.4-5.8-14.1-14.8-14.1H252v28.1H266.8z M320.8,124.4
	c0-7.1,5.6-12.8,12.7-12.8s12.8,5.7,12.8,12.8c0,7.1-5.7,12.8-12.8,12.8C326.4,137.2,320.8,131.5,320.8,124.4"/>
<path class="st0" d="M362.1,123.1V50.5c0-8.4,4.7-13.2,12.6-13.2h45.4c6.8,0,11.2,3.7,11.2,10.2s-4.5,10.2-11.2,10.2h-32.8v19.7
	h31.3c6.1,0,10.2,3.4,10.2,9.3c0,5.8-3.9,9.3-10.2,9.3h-31.3v20h32.8c6.7,0,11.2,3.7,11.2,10.2c0,6.4-4.4,10.2-11.2,10.2h-45.4
	C366.7,136.3,362.1,131.5,362.1,123.1 M445.1,124.4c0-7.1,5.6-12.8,12.7-12.8s12.8,5.7,12.8,12.8s-5.7,12.8-12.8,12.8
	C450.7,137.2,445.1,131.5,445.1,124.4"/>
<path class="st0" d="M483.4,125.8c0-2.1,0.7-5.2,1.8-8.2l24.4-67.1c3.6-10.1,9.7-14.7,19.6-14.7c10.4,0,16.4,4.4,20.2,14.7
	l24.6,67.1c1.2,3.2,1.6,5.6,1.6,8.2c0,7.1-5.3,12.1-12.6,12.1s-11.1-3.3-13.2-11.4l-3.4-11h-33.9l-3.4,10.6
	c-2.4,8.4-6.2,11.8-12.9,11.8C488.3,137.8,483.4,133.3,483.4,125.8 M540.9,96.4l-11.6-38.1h-0.5l-11.3,38.1H540.9L540.9,96.4z
	 M588.7,124.4c0-7.1,5.6-12.8,12.7-12.8s12.8,5.7,12.8,12.8s-5.7,12.8-12.8,12.8S588.7,131.5,588.7,124.4"/>
<path class="st0" d="M630,126.1v-74c0-10.4,5.9-16.3,16.3-16.3c8.8,0,13.5,3.6,17.1,12.8l20.7,52.3h0.5l20.6-52.3
	c3.6-9.3,8.4-12.8,17.2-12.8c10.4,0,16.3,5.9,16.3,16.3v74c0,7.4-4.1,11.7-11.1,11.7s-11-4.3-11-11.7V74.5H716L694,129
	c-1.9,4.7-4.8,6.8-9.6,6.8s-8-2.1-9.7-6.8l-22-54.5h-0.6v51.7c0,7.4-4,11.7-11,11.7C634,137.8,630,133.6,630,126.1 M754.5,124.4
	c0-7.1,5.6-12.8,12.7-12.8s12.8,5.7,12.8,12.8s-5.7,12.8-12.8,12.8C760.2,137.2,754.5,131.5,754.5,124.4"/>
</svg>
