<svg xmlns="http://www.w3.org/2000/svg" width="236.323" height="81.557" viewBox="0 0 236.323 81.557"><path d="M150.357,318.906h14.084a2.418,2.418,0,0,1,.649.09,3.624,3.624,0,0,1,1.135.511,3.537,3.537,0,0,1,1.36,1.836c.062.186.09.38.135.573a.893.893,0,0,1,0,.138c0,.114,0,.231,0,.345v26.453a2.377,2.377,0,0,1-.055.518,4.222,4.222,0,0,1-.128.466,3.709,3.709,0,0,1-.649,1.142c-.1.124-.2.252-.311.373-.345.4-.69.8-1.056,1.2a13.112,13.112,0,0,1-.959.949c-.576.521-1.163,1.035-1.76,1.522s-1.273,1.035-1.919,1.546c-.556.435-1.125.856-1.7,1.263q-1.329.942-2.723,1.791-.787.476-1.591.925c-.645.362-1.3.69-1.974,1.011-.587.276-1.184.531-1.784.773-.973.393-1.964.749-2.961,1.077-.518.173-1.035.328-1.556.487s-1.149.345-1.726.493c-.411.11-.825.221-1.242.311q-.419.1-.842.193c-.138.021-.269.076-.407.083a2.453,2.453,0,0,0-.373.076,2.961,2.961,0,0,1-.345.062c-.176.059-.366.055-.545.11a.847.847,0,0,1-.135,0,.872.872,0,0,0-.207.038.807.807,0,0,1-.2.031,1.428,1.428,0,0,0-.238.038.615.615,0,0,1-.138.028,1.727,1.727,0,0,0-.376.055.58.58,0,0,1-.138,0,1.941,1.941,0,0,0-.345.048.713.713,0,0,1-.173.021,1.436,1.436,0,0,0-.242.024,2.491,2.491,0,0,1-.48.055.621.621,0,0,0-.138,0,2.069,2.069,0,0,1-.483.052,2.441,2.441,0,0,0-.273.031,1.672,1.672,0,0,1-.345.034,3.039,3.039,0,0,0-.587.052,1.039,1.039,0,0,1-.207,0h-.487a2.773,2.773,0,0,0-.449.038,1.568,1.568,0,0,1-.311.021H131.58a2.852,2.852,0,0,1-.38-.028,2.846,2.846,0,0,0-.345-.028h-.521a2.19,2.19,0,0,1-.449-.038,2.416,2.416,0,0,0-.449-.031,2.1,2.1,0,0,1-.414-.038,1.627,1.627,0,0,0-.345-.031,1.771,1.771,0,0,1-.38-.038,1.315,1.315,0,0,0-.2-.028.969.969,0,0,0-.142,0,3.372,3.372,0,0,1-.411-.062,2.055,2.055,0,0,1-.411-.045,1.034,1.034,0,0,0-.207-.028,1.533,1.533,0,0,1-.307-.045.946.946,0,0,0-.173-.024,1.323,1.323,0,0,1-.307-.048.951.951,0,0,0-.173-.024,1.425,1.425,0,0,1-.238-.038.952.952,0,0,0-.173-.031,1.422,1.422,0,0,1-.238-.038,1.915,1.915,0,0,0-.2-.034.5.5,0,0,1-.1,0c-.176-.059-.366-.055-.542-.114a2.13,2.13,0,0,0-.511-.093c-.369-.09-.745-.159-1.115-.252s-.718-.176-1.077-.269c-.469-.117-.935-.255-1.4-.393-.883-.262-1.76-.559-2.623-.89q-1.2-.456-2.371-.987c-.725-.345-1.443-.69-2.147-1.053q-.873-.459-1.726-.97-1.594-.952-3.106-2.043c-.732-.528-1.443-1.084-2.14-1.656s-1.439-1.236-2.133-1.884c-.507-.476-1-.966-1.481-1.467q-1.087-1.118-2.095-2.316t-1.919-2.464c-.421-.583-.825-1.173-1.211-1.777q-.711-1.111-1.346-2.267c-.255-.469-.5-.939-.739-1.418-.345-.673-.638-1.36-.932-2.05-.19-.449-.373-.9-.542-1.353-.217-.573-.414-1.153-.6-1.726-.3-.915-.549-1.839-.773-2.761-.086-.345-.155-.725-.248-1.084-.045-.3-.128-.587-.162-.883-.055-.19-.062-.39-.107-.58a1.454,1.454,0,0,0-.035-.242c-.059-.235-.062-.48-.117-.718a.717.717,0,0,0-.021-.207c-.031-.217-.066-.435-.083-.652a.541.541,0,0,0,0-.1v-.069a3.931,3.931,0,0,0-.038-.449c-.017-.148-.048-.273-.052-.411a1.585,1.585,0,0,0-.024-.314,3.682,3.682,0,0,1-.045-.552,4.748,4.748,0,0,0-.045-.587,2.348,2.348,0,0,1-.021-.311c0-.28,0-.556-.021-.835,0-.162-.021-.321-.031-.483v-1.936c.045-.452.045-.9.059-1.353a2.664,2.664,0,0,1,.035-.521,4.547,4.547,0,0,0,.035-.587,2.319,2.319,0,0,1,.035-.38,2.4,2.4,0,0,0,.035-.414,1.469,1.469,0,0,1,.031-.276.608.608,0,0,0,.021-.138,4.664,4.664,0,0,1,.076-.652c.021-.162.028-.324.062-.483a.942.942,0,0,0,0-.173,1.317,1.317,0,0,1,.031-.2.37.37,0,0,0,.021-.1,5.207,5.207,0,0,1,.093-.652c.028-.217.055-.345.086-.511q.093-.518.2-1.035c.086-.418.176-.839.28-1.253.124-.48.245-.963.383-1.439q.28-.984.611-1.953c.245-.725.518-1.436.811-2.14.217-.525.442-1.035.69-1.553.145-.3.28-.611.431-.908.545-1.073,1.132-2.126,1.774-3.144a39.745,39.745,0,0,1,2.309-3.3q.932-1.191,1.94-2.312,1.38-1.522,2.871-2.92,1.26-1.173,2.606-2.24t2.782-2.022q1.356-.9,2.782-1.7c.852-.473,1.726-.908,2.6-1.318.776-.362,1.567-.69,2.364-1,.928-.345,1.87-.69,2.82-.973.542-.166,1.087-.314,1.636-.459.255-.069.514-.135.773-.193l.742-.169c.273-.059.545-.11.814-.176a2.854,2.854,0,0,0,.442-.086c.148-.024.3-.041.445-.076.2-.048.411-.062.614-.107a1.244,1.244,0,0,0,.273-.041c.224-.055.459-.048.69-.11h.138l.276-.035a.967.967,0,0,1,.138-.024c.245,0,.48-.076.721-.079.176,0,.345-.052.518-.062a4.487,4.487,0,0,0,.483-.034,3.863,3.863,0,0,1,.487-.045,3.922,3.922,0,0,0,.449-.034,3.8,3.8,0,0,1,.483-.031c.29,0,.58-.021.866-.048.117,0,.231-.017.345-.017,1.146-.017,2.292-.021,3.451,0a3.545,3.545,0,0,1,.38.021c.266.024.531.038.8.045a2.8,2.8,0,0,1,.449.031,3.858,3.858,0,0,0,.487.038,1.98,1.98,0,0,1,.345.031h.066a3.989,3.989,0,0,1,.452.035c.152.017.3.045.445.059a2.8,2.8,0,0,1,.449.055.6.6,0,0,1,.173.017,1.365,1.365,0,0,1,.238.034,1.008,1.008,0,0,0,.276.038l.207.028c.045,0,.09.024.135.028a2.775,2.775,0,0,1,.445.066c.148.024.276.038.411.072.186,0,.362.076.545.09a2.6,2.6,0,0,1,.411.083c.138.028.345.076.507.107s.362.079.542.121.345.069.507.114c.5.128,1.008.255,1.508.4q1.518.431,3,.963t2.927,1.184a28.506,28.506,0,0,1,3.769,2.071c1.329.866,2.633,1.767,3.9,2.726q1.411,1.066,2.761,2.229c.628.549,1.235,1.115,1.822,1.726a17.529,17.529,0,0,1,1.522,1.753q.48.638.97,1.267a3.837,3.837,0,0,1,.466.773,4.055,4.055,0,0,1,.231.69,4.395,4.395,0,0,1,.079.825,1.851,1.851,0,0,1-.031.311,1.382,1.382,0,0,0-.028.173,3.447,3.447,0,0,1-.884,1.812c-.135.145-.273.283-.411.424l-8.051,8.051-1.035,1.035-.324.314a3.693,3.693,0,0,1-.4.324,3.327,3.327,0,0,1-1.066.49,1.6,1.6,0,0,1-.345.073.733.733,0,0,0-.169.034,1.127,1.127,0,0,1-.242.024h-.276a1.168,1.168,0,0,1-.345-.038l-.138-.024a3.016,3.016,0,0,1-.732-.2,3.53,3.53,0,0,1-1.522-1.166c-.214-.29-.428-.576-.635-.87a7.867,7.867,0,0,0-.69-.825c-.39-.411-.8-.808-1.2-1.2-.314-.307-.638-.6-.97-.894-.445-.387-.911-.749-1.38-1.094-.318-.231-.645-.449-.977-.663a14.389,14.389,0,0,0-1.833-.987,23.924,23.924,0,0,0-2.254-.9c-.466-.166-.939-.321-1.415-.459-.38-.11-.725-.211-1.277-.345-.155-.031-.311-.083-.473-.1a5.343,5.343,0,0,0-.58-.1.464.464,0,0,1-.1-.017,1.353,1.353,0,0,0-.311-.048.715.715,0,0,1-.169-.024,1.928,1.928,0,0,0-.345-.045,1.372,1.372,0,0,1-.207-.017,2.355,2.355,0,0,0-.518-.052,2.857,2.857,0,0,1-.483-.038,1.856,1.856,0,0,0-.311-.021q-.835-.021-1.667,0a2.325,2.325,0,0,0-.345.028,2.8,2.8,0,0,1-.414.031h-.276a.713.713,0,0,0-.173,0,2.726,2.726,0,0,1-.552.055,3.007,3.007,0,0,0-.345.059,3.051,3.051,0,0,0-.311.028c-.124.028-.252.038-.376.059s-.318.059-.48.083a1.519,1.519,0,0,1-.3.059,2.235,2.235,0,0,1-.273.059,3.761,3.761,0,0,0-.369.083c-.4.107-.808.207-1.2.328a18.315,18.315,0,0,0-2.982,1.215,18.653,18.653,0,0,0-3.348,2.219,21.282,21.282,0,0,0-1.8,1.681,20.181,20.181,0,0,0-2.167,2.706,18.039,18.039,0,0,0-2.312,5.025c-.145.511-.259,1.035-.38,1.546-.017.186-.083.362-.093.549a3.745,3.745,0,0,1-.1.614.543.543,0,0,0,0,.1c0,.221-.069.435-.076.652a4.486,4.486,0,0,1-.048.483,4.17,4.17,0,0,0-.024.418,4.344,4.344,0,0,1-.035.518,1.139,1.139,0,0,1-.017.242v1.726a2.032,2.032,0,0,0,0,.207,5.87,5.87,0,0,1,.045.69v.034c0,.186.045.366.059.552a3.758,3.758,0,0,0,.052.518.941.941,0,0,1,.021.173,2.316,2.316,0,0,0,.045.345,1.376,1.376,0,0,1,.028.173v.138c.052.248.086.5.138.749.069.345.145.69.231,1.015a17.539,17.539,0,0,0,.535,1.757c.162.445.345.887.538,1.315l.072.159a17.5,17.5,0,0,0,1.757,2.985,20.242,20.242,0,0,0,2.543,2.885,19.147,19.147,0,0,0,2.661,2.116,17.255,17.255,0,0,0,2.392,1.332,17.9,17.9,0,0,0,2.668.98c.424.117.915.242,1.346.345.159.031.317.062.476.086a3.857,3.857,0,0,0,.48.079c.235.062.483.055.718.11a.942.942,0,0,0,.138.017,3.309,3.309,0,0,1,.414.045c.114,0,.231.021.345.024s.3.021.452.035.321.028.483.031h2.223a4.207,4.207,0,0,0,.552-.035c.138-.017.28-.024.418-.031a2.111,2.111,0,0,0,.345-.024,3.193,3.193,0,0,1,.449-.048,1.416,1.416,0,0,0,.207-.028,1.917,1.917,0,0,1,.2-.031,1.942,1.942,0,0,0,.376-.055h.035c.29-.028.573-.09.856-.141.556-.1,1.215-.266,1.726-.407a22.524,22.524,0,0,0,2.16-.752,19.726,19.726,0,0,0,1.929-.87c.228-.114.449-.242.666-.373a5.867,5.867,0,0,0,.966-.732.745.745,0,0,0,.072-.076.207.207,0,0,0,.055-.124v-4.138a.324.324,0,0,0-.021-.1.138.138,0,0,0-.1-.09H136.37a1.291,1.291,0,0,1-.345-.034.61.61,0,0,0-.135-.024,3.375,3.375,0,0,1-1.667-.725,3.514,3.514,0,0,1-1.125-1.594,3.278,3.278,0,0,1-.11-.4,1.93,1.93,0,0,0-.041-.2,1.058,1.058,0,0,1-.024-.207V322.34a3.234,3.234,0,0,1,.248-1.249,3.506,3.506,0,0,1,2.195-2.029,5.172,5.172,0,0,1,.507-.124.692.692,0,0,1,.169,0h14.3m-7.182,4.141a2.211,2.211,0,0,0-.69.059h-.035a3.814,3.814,0,0,0-.438.1,4.141,4.141,0,0,0-1.588.9,4.045,4.045,0,0,0-1.18,1.926,2.834,2.834,0,0,0-.11.614.734.734,0,0,1-.028.242,1.628,1.628,0,0,0,0,.449c.017.114.031.231.038.345a.942.942,0,0,0,0,.138c.041.169.072.345.128.5a4.031,4.031,0,0,0,1.47,2.053,3.964,3.964,0,0,0,1.8.759.515.515,0,0,0,.1,0,4.773,4.773,0,0,0,.832,0,3.447,3.447,0,0,0,.649-.1,4.14,4.14,0,0,0,1.035-.414l.238-.138a.141.141,0,0,1,.162.024l.245.242,4.369,4.369,1.349,1.353a.513.513,0,0,1,.09.1.114.114,0,0,1,0,.1c0,.031-.028.062-.045.093a3.592,3.592,0,0,0-.4,1.139,3.944,3.944,0,0,0-.024.966,5.343,5.343,0,0,0,.124.576,3.368,3.368,0,0,0,1.277,1.77c.11.079.235.148.345.221a1.307,1.307,0,0,1,.114.076.155.155,0,0,1,.062.121,1.784,1.784,0,0,1-.028.449,2.327,2.327,0,0,0-.048.345.948.948,0,0,1-.024.173,2.806,2.806,0,0,0-.048.376,3.413,3.413,0,0,1-.059.376,2.866,2.866,0,0,1-.048.345,1.483,1.483,0,0,1-.028.207,1.267,1.267,0,0,1-.017.173,1.976,1.976,0,0,0-.055.376.943.943,0,0,1,0,.138,1.974,1.974,0,0,0-.052.376.911.911,0,0,1-.072.3.145.145,0,0,1-.1.09l-.266.076a2.029,2.029,0,0,0-1.063.8,1.977,1.977,0,0,0-.259.528,2.267,2.267,0,0,0-.107.611,2.119,2.119,0,0,0,1.46,1.988,2.759,2.759,0,0,0,.58.1,2.2,2.2,0,0,0,.69-.114,1.747,1.747,0,0,0,.438-.2,2.189,2.189,0,0,0,.518-.459,2.1,2.1,0,0,0,.452-1.108,1.85,1.85,0,0,0-.086-.787,2.036,2.036,0,0,0-.745-1.084l-.193-.145a.142.142,0,0,1-.052-.124.117.117,0,0,1,0-.035,2.131,2.131,0,0,0,.062-.445,1.493,1.493,0,0,1,.028-.173,1.443,1.443,0,0,0,.028-.169,3.4,3.4,0,0,1,.055-.414c.031-.193.048-.39.086-.583v-.138a.841.841,0,0,1,.017-.135,2.009,2.009,0,0,0,.052-.38,1.486,1.486,0,0,1,.024-.173,1.926,1.926,0,0,0,.035-.2,6.2,6.2,0,0,1,.09-.618.162.162,0,0,1,.114-.117l.173-.021a5.11,5.11,0,0,0,.756-.107,3.568,3.568,0,0,0,.8-.314,3.371,3.371,0,0,0,1.432-1.512,3.132,3.132,0,0,0,.235-.652,2.512,2.512,0,0,0,.09-.718v-.245a2.675,2.675,0,0,0-.062-.549,3.586,3.586,0,0,0-.283-.818,3.417,3.417,0,0,0-.345-.556l-.148-.193a.151.151,0,0,1-.031-.062.086.086,0,0,1,0-.066,1.039,1.039,0,0,1,.093-.145l.842-1.1,3.106-4.048.4-.521.09-.1a.186.186,0,0,1,.159-.055,1.458,1.458,0,0,1,.169.031,1.4,1.4,0,0,0,.242.028,2.109,2.109,0,0,0,2.071-1.5,2.3,2.3,0,0,0,.086-.649,1.943,1.943,0,0,0-.055-.345,2.053,2.053,0,0,0-1.211-1.47,2.592,2.592,0,0,0-.69-.169.811.811,0,0,0-.242,0,3.689,3.689,0,0,0-.507.11,2.071,2.071,0,0,0-1.38,1.563,1.746,1.746,0,0,0,0,.756,2.458,2.458,0,0,0,.179.559.642.642,0,0,1,.048.128.135.135,0,0,1,0,.1.823.823,0,0,1-.073.117l-.4.5q-1.035,1.351-2.071,2.7-.973,1.263-1.943,2.533c-.035.045-.072.093-.11.135a.124.124,0,0,1-.128.035.6.6,0,0,1-.169-.038,2.3,2.3,0,0,0-.607-.128.994.994,0,0,1-.173-.028,1.421,1.421,0,0,0-.483,0,2.4,2.4,0,0,1-.276.035.437.437,0,0,0-.135,0c-.155.048-.318.072-.469.128a3.9,3.9,0,0,0-.442.2l-.155.079a.155.155,0,0,1-.193-.021l-.248-.242-5.546-5.546-.2-.2c-.086-.1-.093-.152-.035-.248s.083-.138.121-.211a3.833,3.833,0,0,0,.345-.763,2.835,2.835,0,0,0,.124-.538,2.211,2.211,0,0,0,.062-.621c0-.114,0-.231,0-.345a.713.713,0,0,0,0-.173c-.038-.2-.066-.411-.121-.611a4.093,4.093,0,0,0-1.643-2.295,3.735,3.735,0,0,0-.732-.393,3.3,3.3,0,0,0-.866-.242.476.476,0,0,1-.1-.024,1.063,1.063,0,0,0-.276-.034h-.311" transform="translate(-80.124 -284.233)" fill="#3c50e0"/><path d="M63.923,366.509h-4.1c-.041,0-.1-.052-.093-.086a2.829,2.829,0,0,1,.048-.483,1.424,1.424,0,0,1,.038-.238.447.447,0,0,0,0-.138,3.563,3.563,0,0,0,.062-.376c.024-.124.048-.249.069-.376s.045-.273.076-.407c.062-.283.114-.566.176-.849s.114-.518.176-.776q.29-1.232.666-2.44c.217-.69.459-1.4.714-2.1a1.318,1.318,0,0,1,.072-.159.21.21,0,0,1,.186-.131h8.252a.1.1,0,0,1,.093.121,1.5,1.5,0,0,1-.048.166c-.29.756-.538,1.525-.78,2.3q-.283.911-.514,1.836c-.083.324-.162.649-.238.977s-.121.587-.19.88-.117.638-.19.953a4.726,4.726,0,0,1-.1.58c-.024.193-.059.317-.072.48a.477.477,0,0,1-.028.1c-.041.128-.076.176-.217.179H63.923" transform="translate(-59.364 -332.009)" fill="#3c50e0"/><path d="M73.013,335.278H68.871a.086.086,0,0,1-.066-.1.08.08,0,0,1,.021-.066l.093-.186c.2-.428.414-.856.635-1.273a37.645,37.645,0,0,1,2-3.4,35.035,35.035,0,0,1,2.25-3.082c.11-.135.224-.266.345-.4a.207.207,0,0,1,.152-.072h7.672a2.305,2.305,0,0,1,.38,0,.072.072,0,0,1,.045.107c-.059.086-.117.173-.179.255q-.99,1.277-1.87,2.63c-.476.725-.932,1.463-1.36,2.216q-.569,1-1.077,2.022c-.173.345-.345.69-.5,1.035-.035.073-.072.145-.114.214a.163.163,0,0,1-.114.072H73.013" transform="translate(-65.306 -311.535)" fill="#3c50e0"/><path d="M63,389.027h4.09a.141.141,0,0,1,.093.093.245.245,0,0,1,0,.069,1.236,1.236,0,0,1,0,.276,3.041,3.041,0,0,0-.052.587,2.328,2.328,0,0,1-.028.345,3.267,3.267,0,0,0-.035.449v.452a3.336,3.336,0,0,1-.024.414c0,.128-.021.255-.024.38q-.031,1.425,0,2.847a1.93,1.93,0,0,0,.021.345,4.338,4.338,0,0,1,.028.518q0,.243,0,.487a2.859,2.859,0,0,0,.035.38,6.239,6.239,0,0,1,.031.763v.035a.169.169,0,0,1-.121.11H59.108l-.1-.021a.117.117,0,0,1-.072-.069,1.47,1.47,0,0,1-.079-.407,3.326,3.326,0,0,0-.055-.552,1.81,1.81,0,0,1,0-.242,4.252,4.252,0,0,0-.045-.552,2.415,2.415,0,0,1-.021-.276c0-.183,0-.369,0-.556a1.348,1.348,0,0,0-.024-.311,3.716,3.716,0,0,1-.028-.518q-.021-1.491,0-2.982a3.333,3.333,0,0,1,.031-.556c.024-.252.031-.507.038-.763a3.669,3.669,0,0,1,.055-.583c0-.024,0-.048,0-.069a.183.183,0,0,1,.124-.11H63" transform="translate(-58.67 -352.349)" fill="#3c50e0"/><path d="M64.482,420.22H68.3a.89.89,0,0,1,.138.021.148.148,0,0,1,.1.083.452.452,0,0,1,.062.2,2.771,2.771,0,0,0,.066.445,4.078,4.078,0,0,0,.069.411,5.478,5.478,0,0,0,.093.58c0,.138.066.269.072.411a2.64,2.64,0,0,0,.09.442c.035.148.069.314.1.473s.055.3.09.442c.128.5.245,1.011.376,1.512.235.873.49,1.726.78,2.588.083.242.169.48.252.718a.985.985,0,0,1,.038.135.093.093,0,0,1-.079.124h-7.53a.162.162,0,0,1-.11-.072,1.128,1.128,0,0,1-.128-.248c-.11-.266-.221-.535-.345-.8-.345-.915-.69-1.839-.977-2.782q-.276-.89-.5-1.8c-.128-.5-.252-1.008-.345-1.518-.059-.293-.131-.583-.173-.883a1.671,1.671,0,0,0-.038-.169.956.956,0,0,1,0-.173.138.138,0,0,1,.086-.1l.1-.021h3.893" transform="translate(-59.802 -372.789)" fill="#3c50e0"/><path d="M74.705,451.4h3.606a.368.368,0,0,1,.1.021.162.162,0,0,1,.083.062,1.14,1.14,0,0,1,.093.183c.293.642.59,1.28.911,1.908q.749,1.47,1.615,2.871,1.015,1.639,2.167,3.185a1.189,1.189,0,0,1,.173.255.069.069,0,0,1-.045.083.474.474,0,0,1-.069,0H76.959a.249.249,0,0,1-.183-.086c-.173-.19-.345-.376-.507-.569-.418-.483-.825-.97-1.218-1.47-.528-.659-1.035-1.339-1.512-2.029a34.845,34.845,0,0,1-1.908-3.02c-.207-.362-.411-.725-.6-1.1a1.32,1.32,0,0,1-.072-.159.093.093,0,0,1,.069-.135.322.322,0,0,1,.1,0h3.575" transform="translate(-66.712 -393.207)" fill="#3c50e0"/><path d="M114.081,493.217l-.062-.028a2.446,2.446,0,0,1-.3-.076c-.856-.19-.973-.224-1.912-.483-.618-.166-1.581-.466-2.071-.638q-1.543-.528-3.04-1.173t-2.937-1.415a39.877,39.877,0,0,1-4.021-2.461q-1.38-.973-2.713-2.071c-.766-.632-1.515-1.287-2.236-1.974a3.539,3.539,0,0,1-.345-.345.059.059,0,0,1,0-.066.066.066,0,0,1,.055-.038h6.07a.3.3,0,0,1,.214.1.643.643,0,0,1,.048.048l.418.466c.8.911,1.653,1.781,2.53,2.623s1.819,1.681,2.761,2.464a44.754,44.754,0,0,0,4.656,3.379c.835.521,1.684,1.015,2.554,1.474.062.031.124.062.183.1a.461.461,0,0,1,.135.11Z" transform="translate(-82.09 -413.543)" fill="#3c50e0"/><path d="M117.915,288.944h-3.641a.021.021,0,0,1-.021-.021.028.028,0,0,1,0-.028.662.662,0,0,1,.11-.083q.928-.576,1.884-1.1c.69-.376,1.38-.725,2.071-1.06q1.425-.69,2.9-1.242c.766-.293,1.543-.566,2.326-.808s1.594-.473,2.416-.673c.5-.124,1.011-.238,1.518-.345.345-.072.69-.145,1.035-.2.2-.055.411-.062.614-.117a3.1,3.1,0,0,1,.614-.09c.093,0,.183-.045.273-.052.245,0,.48-.086.725-.09a.5.5,0,0,0,.1,0h.069c.148-.038.3-.024.449-.048a3.265,3.265,0,0,1,.445-.055,1.826,1.826,0,0,0,.276-.028,3.963,3.963,0,0,1,.449-.045,2.854,2.854,0,0,0,.345-.031,3.271,3.271,0,0,1,.449-.035,3.38,3.38,0,0,1,.418,0v.024a.127.127,0,0,1-.083.055c-.276.083-.549.179-.821.273-.742.252-1.477.531-2.205.828q-1.781.725-3.493,1.608-1.574.818-3.071,1.753-1.132.711-2.219,1.487c-.276.193-.214.173-.542.173h-3.4" transform="translate(-95.068 -282.781)" fill="#3c50e0"/><path d="M94.388,312.414H90.433a.059.059,0,0,1-.048-.041.072.072,0,0,1,0-.066.286.286,0,0,1,.041-.055c.259-.266.511-.535.773-.8s.5-.483.749-.721c.835-.8,1.726-1.563,2.606-2.3l.19-.148A.417.417,0,0,1,95,308.2h7.247a1.139,1.139,0,0,1,.307.017.084.084,0,0,1,.028.021.059.059,0,0,1,0,.066l-.024.024-.048.048c-.473.407-.932.835-1.38,1.267-.659.635-1.308,1.28-1.929,1.95l-.542.587c-.038.041-.079.083-.117.128a.345.345,0,0,1-.245.11h-3.91Z" transform="translate(-79.435 -299.428)" fill="#3c50e0"/><path d="M151.36,513.64a.049.049,0,0,0,.052,0h-.048" transform="translate(-119.372 -433.969)" fill="#3c50e0"/><path d="M368.5,367.151a8.949,8.949,0,0,0-3.451-3.9,9.963,9.963,0,0,0-5.284-1.38,10.716,10.716,0,0,0-5.425,1.38,9.777,9.777,0,0,0-3.8,3.962,13.5,13.5,0,0,0,0,11.906,9.808,9.808,0,0,0,3.8,3.941,10.715,10.715,0,0,0,5.425,1.38,9.8,9.8,0,0,0,6.933-2.519,10.425,10.425,0,0,0,3.178-6.809H358.4v-3.054h15.475v2.889a14.257,14.257,0,0,1-2.229,6.491,13.759,13.759,0,0,1-4.994,4.666,13.973,13.973,0,0,1-6.9,1.726,14.5,14.5,0,0,1-7.3-1.881,13.8,13.8,0,0,1-5.222-5.221,15.858,15.858,0,0,1,0-15.123,13.752,13.752,0,0,1,5.222-5.242,14.494,14.494,0,0,1,7.3-1.877,14.65,14.65,0,0,1,8.11,2.271A12.976,12.976,0,0,1,373,367.151Z" transform="translate(-246.388 -332.357)" fill="#646a7a"/><path d="M443.163,385.092a9.553,9.553,0,0,1,3.624-3.82,9.953,9.953,0,0,1,5.139-1.356,9.432,9.432,0,0,1,4.832,1.2,8.038,8.038,0,0,1,3.065,3.023v-4.224h3.568v21.945h-3.572l.024-4.317a8.282,8.282,0,0,1-3.123,3.082,9.318,9.318,0,0,1-4.832,1.222,9.663,9.663,0,0,1-5.118-1.38,9.78,9.78,0,0,1-3.606-3.917,12.183,12.183,0,0,1-1.318-5.739,11.924,11.924,0,0,1,1.318-5.718M458,386.679a6.875,6.875,0,0,0-2.619-2.733,7.42,7.42,0,0,0-7.23-.017,6.749,6.749,0,0,0-2.6,2.713,8.656,8.656,0,0,0-.97,4.19,8.859,8.859,0,0,0,.97,4.245,6.833,6.833,0,0,0,2.6,2.761,7.016,7.016,0,0,0,3.606.953,7.106,7.106,0,0,0,3.624-.953A6.809,6.809,0,0,0,458,395.076a8.773,8.773,0,0,0,.97-4.207,8.656,8.656,0,0,0-.97-4.19" transform="translate(-309.606 -346.392)" fill="#646a7a"/><path d="M528.808,369.492v12.524a2.992,2.992,0,0,0,.659,2.191,3.21,3.21,0,0,0,2.288.638h2.6v2.985h-3.179a6.312,6.312,0,0,1-4.421-1.356c-.97-.9-1.474-2.392-1.474-4.459V369.492H522.52v-3.606h2.761l.062-7.4h3.451v7.4h5.546v3.606Z" transform="translate(-362.441 -332.362)" fill="#646a7a"/><path d="M588.048,367.212a7.268,7.268,0,0,1,3.044,3.082,10.415,10.415,0,0,1,1.1,5v12.524h-3.489V375.8a6.84,6.84,0,0,0-1.588-4.866,5.686,5.686,0,0,0-4.352-1.688,5.808,5.808,0,0,0-4.438,1.746,7.149,7.149,0,0,0-1.65,5.08V387.8h-3.52V358.47h3.527v11.119a6.954,6.954,0,0,1,2.889-2.523,9.373,9.373,0,0,1,4.141-.89,9.1,9.1,0,0,1,4.341,1.035" transform="translate(-395.605 -332.349)" fill="#646a7a"/><path d="M660.664,392.209H643.681a6.679,6.679,0,0,0,6.9,6.668,6.53,6.53,0,0,0,3.82-1.066,5.657,5.657,0,0,0,2.15-2.851h3.8a9.141,9.141,0,0,1-3.4,5,10.287,10.287,0,0,1-6.36,1.919,10.735,10.735,0,0,1-5.408-1.356,9.6,9.6,0,0,1-3.762-3.876,11.973,11.973,0,0,1-1.356-5.8,12.135,12.135,0,0,1,1.318-5.777,9.276,9.276,0,0,1,3.7-3.82,11.044,11.044,0,0,1,5.487-1.336,10.644,10.644,0,0,1,5.349,1.318,9.153,9.153,0,0,1,3.589,3.624,10.731,10.731,0,0,1,1.26,5.218,20.39,20.39,0,0,1-.117,2.133m-4.393-6.34a5.791,5.791,0,0,0-2.416-2.212,7.568,7.568,0,0,0-3.392-.756,6.557,6.557,0,0,0-4.556,1.7,6.991,6.991,0,0,0-2.153,4.731h13.418a6.507,6.507,0,0,0-.9-3.468" transform="translate(-439.418 -346.392)" fill="#646a7a"/><path d="M719.524,381.82a8.2,8.2,0,0,1,4.207-1.008v3.644H722.8q-5.933,0-5.932,6.436v11.554h-3.53V380.812h3.53v3.838a6.757,6.757,0,0,1,2.654-2.83" transform="translate(-487.408 -346.978)" fill="#646a7a"/></svg>